<svg xmlns="http://www.w3.org/2000/svg" xmlns:xlink="http://www.w3.org/1999/xlink" width="500" zoomAndPan="magnify" viewBox="0 0 375 374.999991" height="500" preserveAspectRatio="xMidYMid meet" version="1.0"><defs><clipPath id="91e7042b4c"><path d="M 59.972656 49 L 324 49 L 324 312.4375 L 59.972656 312.4375 Z M 59.972656 49 " clip-rule="nonzero"/></clipPath><clipPath id="315b58f335"><rect x="0" width="265" y="0" height="264"/></clipPath></defs><g clip-path="url(#91e7042b4c)"><g transform="matrix(1, 0, 0, 1, 59, 49)"><g clip-path="url(#315b58f335)"><path fill="#ffffff" d="M 2.835938 135.445312 C 2.773438 133.308594 2.761719 131.175781 2.804688 129.039062 C 2.84375 126.90625 2.9375 124.773438 3.085938 122.640625 C 3.230469 120.511719 3.429688 118.386719 3.679688 116.265625 C 3.933594 114.144531 4.234375 112.03125 4.589844 109.925781 C 4.945312 107.820312 5.351562 105.722656 5.808594 103.636719 C 6.265625 101.550781 6.773438 99.476562 7.332031 97.417969 C 7.890625 95.355469 8.5 93.308594 9.160156 91.277344 C 9.820312 89.246094 10.527344 87.234375 11.285156 85.238281 C 12.046875 83.242188 12.851562 81.265625 13.707031 79.308594 C 14.5625 77.351562 15.464844 75.417969 16.417969 73.503906 C 17.367188 71.59375 18.363281 69.703125 19.40625 67.839844 C 20.449219 65.976562 21.539062 64.140625 22.671875 62.332031 C 23.804688 60.519531 24.980469 58.738281 26.203125 56.988281 C 27.421875 55.234375 28.6875 53.515625 29.992188 51.824219 C 31.296875 50.132812 32.640625 48.476562 34.027344 46.851562 C 35.414062 45.226562 36.839844 43.640625 38.304688 42.085938 C 39.769531 40.53125 41.273438 39.011719 42.8125 37.53125 C 44.347656 36.050781 45.925781 34.609375 47.535156 33.207031 C 49.144531 31.804688 50.785156 30.441406 52.464844 29.117188 C 54.140625 27.796875 55.847656 26.515625 57.585938 25.277344 C 59.328125 24.039062 61.097656 22.84375 62.894531 21.691406 C 64.691406 20.539062 66.519531 19.433594 68.371094 18.371094 C 70.222656 17.308594 72.101562 16.292969 74.003906 15.320312 C 75.90625 14.351562 77.832031 13.429688 79.777344 12.554688 C 81.726562 11.675781 83.695312 10.851562 85.683594 10.070312 C 87.671875 9.292969 89.675781 8.5625 91.703125 7.882812 C 93.726562 7.203125 95.765625 6.570312 97.820312 5.992188 C 99.875 5.410156 101.945312 4.882812 104.023438 4.402344 C 106.105469 3.921875 108.199219 3.496094 110.300781 3.121094 C 112.402344 2.742188 114.511719 2.417969 116.628906 2.148438 C 118.746094 1.875 120.871094 1.652344 123 1.484375 C 125.128906 1.316406 127.261719 1.199219 129.394531 1.136719 C 131.53125 1.074219 133.664062 1.0625 135.800781 1.101562 C 137.933594 1.144531 140.066406 1.238281 142.199219 1.382812 C 144.328125 1.527344 146.453125 1.726562 148.574219 1.976562 C 150.695312 2.226562 152.808594 2.527344 154.914062 2.882812 C 157.019531 3.238281 159.117188 3.640625 161.203125 4.097656 C 163.289062 4.554688 165.363281 5.0625 167.425781 5.621094 C 169.484375 6.179688 171.53125 6.789062 173.5625 7.449219 C 175.59375 8.105469 177.609375 8.816406 179.605469 9.574219 C 181.601562 10.332031 183.578125 11.136719 185.535156 11.992188 C 187.492188 12.847656 189.425781 13.75 191.339844 14.699219 C 193.25 15.648438 195.140625 16.644531 197.003906 17.6875 C 198.867188 18.730469 200.703125 19.816406 202.515625 20.949219 C 204.324219 22.082031 206.105469 23.261719 207.859375 24.480469 C 209.613281 25.699219 211.332031 26.960938 213.023438 28.265625 C 214.714844 29.570312 216.371094 30.917969 217.996094 32.304688 C 219.621094 33.691406 221.210938 35.113281 222.765625 36.578125 C 224.320312 38.042969 225.835938 39.542969 227.320312 41.082031 C 228.800781 42.621094 230.242188 44.195312 231.644531 45.804688 C 233.050781 47.414062 234.414062 49.058594 235.734375 50.734375 C 237.058594 52.410156 238.339844 54.117188 239.578125 55.855469 C 240.816406 57.59375 242.015625 59.363281 243.167969 61.160156 C 244.320312 62.960938 245.425781 64.785156 246.488281 66.636719 C 247.550781 68.488281 248.570312 70.367188 249.539062 72.269531 C 250.507812 74.171875 251.433594 76.09375 252.308594 78.042969 C 253.183594 79.992188 254.011719 81.957031 254.792969 83.945312 C 255.574219 85.933594 256.304688 87.941406 256.984375 89.964844 C 257.664062 91.988281 258.296875 94.027344 258.875 96.082031 C 259.457031 98.136719 259.988281 100.207031 260.46875 102.285156 C 260.945312 104.367188 261.375 106.460938 261.753906 108.5625 C 262.128906 110.664062 262.453125 112.773438 262.726562 114.890625 C 263 117.007812 263.222656 119.132812 263.390625 121.261719 C 263.558594 123.390625 263.675781 125.523438 263.742188 127.65625 C 263.804688 129.789062 263.816406 131.925781 263.777344 134.0625 C 263.734375 136.195312 263.644531 138.328125 263.496094 140.460938 C 263.351562 142.589844 263.15625 144.714844 262.90625 146.835938 C 262.65625 148.957031 262.355469 151.070312 262.003906 153.175781 C 261.648438 155.28125 261.242188 157.378906 260.789062 159.464844 C 260.332031 161.550781 259.824219 163.625 259.265625 165.6875 C 258.707031 167.746094 258.101562 169.792969 257.441406 171.824219 C 256.785156 173.855469 256.078125 175.871094 255.320312 177.867188 C 254.5625 179.863281 253.757812 181.839844 252.902344 183.800781 C 252.046875 185.757812 251.144531 187.691406 250.195312 189.605469 C 249.246094 191.515625 248.25 193.40625 247.210938 195.269531 C 246.167969 197.132812 245.082031 198.972656 243.949219 200.78125 C 242.816406 202.59375 241.640625 204.375 240.421875 206.128906 C 239.199219 207.878906 237.9375 209.601562 236.636719 211.292969 C 235.332031 212.984375 233.984375 214.640625 232.601562 216.265625 C 231.214844 217.890625 229.789062 219.480469 228.328125 221.035156 C 226.863281 222.59375 225.363281 224.109375 223.824219 225.589844 C 222.285156 227.074219 220.710938 228.515625 219.101562 229.921875 C 217.496094 231.324219 215.851562 232.6875 214.175781 234.011719 C 212.5 235.335938 210.792969 236.617188 209.054688 237.855469 C 207.316406 239.097656 205.546875 240.292969 203.75 241.445312 C 201.953125 242.597656 200.128906 243.707031 198.277344 244.769531 C 196.421875 245.832031 194.546875 246.851562 192.644531 247.820312 C 190.742188 248.792969 188.820312 249.714844 186.871094 250.59375 C 184.925781 251.46875 182.957031 252.296875 180.96875 253.078125 C 178.980469 253.859375 176.976562 254.589844 174.949219 255.273438 C 172.925781 255.953125 170.886719 256.585938 168.832031 257.167969 C 166.777344 257.75 164.710938 258.277344 162.628906 258.757812 C 160.550781 259.238281 158.457031 259.667969 156.355469 260.046875 C 154.253906 260.421875 152.144531 260.75 150.027344 261.023438 C 147.910156 261.296875 145.785156 261.519531 143.65625 261.6875 C 141.527344 261.855469 139.394531 261.972656 137.261719 262.039062 C 135.125 262.105469 132.988281 262.117188 130.851562 262.078125 C 128.714844 262.039062 126.582031 261.945312 124.449219 261.800781 C 122.316406 261.65625 120.1875 261.457031 118.066406 261.210938 C 115.945312 260.960938 113.828125 260.660156 111.722656 260.304688 C 109.613281 259.953125 107.515625 259.546875 105.425781 259.089844 C 103.339844 258.636719 101.265625 258.128906 99.203125 257.570312 C 97.136719 257.011719 95.089844 256.402344 93.058594 255.746094 C 91.023438 255.085938 89.007812 254.378906 87.011719 253.621094 C 85.011719 252.863281 83.035156 252.054688 81.074219 251.199219 C 79.117188 250.34375 77.179688 249.441406 75.265625 248.492188 C 73.351562 247.542969 71.460938 246.546875 69.597656 245.503906 C 67.730469 244.460938 65.890625 243.371094 64.082031 242.238281 C 62.269531 241.105469 60.484375 239.929688 58.730469 238.707031 C 56.976562 237.484375 55.253906 236.222656 53.5625 234.917969 C 51.871094 233.613281 50.210938 232.265625 48.585938 230.878906 C 46.960938 229.492188 45.367188 228.066406 43.8125 226.601562 C 42.257812 225.136719 40.738281 223.632812 39.257812 222.09375 C 37.773438 220.554688 36.332031 218.976562 34.925781 217.367188 C 33.523438 215.757812 32.15625 214.113281 30.832031 212.433594 C 29.511719 210.757812 28.226562 209.046875 26.988281 207.308594 C 25.75 205.566406 24.550781 203.796875 23.398438 201.996094 C 22.246094 200.195312 21.136719 198.371094 20.074219 196.515625 C 19.011719 194.664062 17.996094 192.785156 17.023438 190.878906 C 16.054688 188.976562 15.128906 187.050781 14.253906 185.101562 C 13.375 183.152344 12.546875 181.179688 11.769531 179.191406 C 10.988281 177.203125 10.257812 175.195312 9.578125 173.167969 C 8.898438 171.140625 8.265625 169.101562 7.6875 167.042969 C 7.105469 164.988281 6.578125 162.917969 6.097656 160.835938 C 5.617188 158.753906 5.191406 156.660156 4.816406 154.554688 C 4.4375 152.449219 4.113281 150.339844 3.84375 148.21875 C 3.570312 146.101562 3.351562 143.976562 3.183594 141.84375 C 3.015625 139.714844 2.898438 137.582031 2.835938 135.445312 Z M 172.964844 199.953125 L 113.117188 131.527344 L 172.964844 63.105469 L 158.980469 50.800781 L 88.320312 131.527344 L 158.980469 212.257812 Z M 172.964844 199.953125 " fill-opacity="1" fill-rule="nonzero"/></g></g></g></svg>