<svg xmlns="http://www.w3.org/2000/svg" xmlns:xlink="http://www.w3.org/1999/xlink" width="500" zoomAndPan="magnify" viewBox="0 0 375 374.999991" height="500" preserveAspectRatio="xMidYMid meet" version="1.0"><defs><g/><clipPath id="adc26c9fad"><path d="M 139 102 L 273 102 L 273 173 L 139 173 Z M 139 102 " clip-rule="nonzero"/></clipPath><clipPath id="3eb2313d94"><path d="M 118.386719 141.3125 L 248.074219 65.9375 L 278.601562 118.460938 L 148.914062 193.835938 Z M 118.386719 141.3125 " clip-rule="nonzero"/></clipPath><clipPath id="9b5d57ce29"><path d="M 118.386719 141.3125 L 248.074219 65.9375 L 278.601562 118.460938 L 148.914062 193.835938 Z M 118.386719 141.3125 " clip-rule="nonzero"/></clipPath><clipPath id="bc9322e89e"><rect x="0" width="123" y="0" height="202"/></clipPath><clipPath id="f2515f5259"><rect x="0" width="82" y="0" height="202"/></clipPath><clipPath id="c583eecf17"><rect x="0" width="65" y="0" height="206"/></clipPath></defs><rect x="-37.5" width="450" fill="#ffffff" y="-37.499999" height="449.999989" fill-opacity="1"/><rect x="-37.5" width="450" fill="#ffffff" y="-37.499999" height="449.999989" fill-opacity="1"/><g clip-path="url(#adc26c9fad)"><g clip-path="url(#3eb2313d94)"><g clip-path="url(#9b5d57ce29)"><path fill="#fbb54d" d="M 180.699219 172.011719 C 180.699219 172.011719 138.253906 175.472656 139.617188 163.234375 C 141.015625 151.054688 180.699219 172.011719 180.699219 172.011719 Z M 243.578125 137.546875 C 243.578125 137.546875 263.449219 106.949219 270.859375 112.40625 C 278.269531 117.863281 249.214844 135.550781 243.578125 137.546875 Z M 223.394531 134.871094 C 223.394531 134.871094 224.453125 104.640625 234.667969 102.546875 C 244.847656 100.390625 223.394531 134.871094 223.394531 134.871094 Z M 201.21875 141.835938 C 201.21875 141.835938 181.425781 113.5625 191.625 106.351562 C 201.828125 99.140625 201.21875 141.835938 201.21875 141.835938 Z M 186.535156 155.09375 C 186.535156 155.09375 146.242188 135.289062 153.519531 125.9375 C 160.769531 116.679688 186.535156 155.09375 186.535156 155.09375 Z M 186.535156 155.09375 " fill-opacity="1" fill-rule="evenodd"/></g></g></g><g transform="matrix(1, 0, 0, 1, 177, 95)"><g clip-path="url(#bc9322e89e)"><g fill="#e1b1ed" fill-opacity="1"><g transform="translate(3.391414, 160.323285)"><g><path d="M 91.453125 -114.71875 C 96.347656 -113.59375 100.226562 -112.191406 103.09375 -110.515625 C 106.457031 -108.472656 108.140625 -106.046875 108.140625 -103.234375 C 108.140625 -99.972656 107.859375 -96.707031 107.296875 -93.4375 C 106.734375 -90.175781 105.632812 -87.117188 104 -84.265625 C 101.65625 -80.128906 99.382812 -78.0625 97.1875 -78.0625 C 95.195312 -78.0625 93.257812 -78.394531 91.375 -79.0625 C 89.4375 -79.71875 87.550781 -80.351562 85.71875 -80.96875 C 81.882812 -82.238281 76.679688 -82.773438 70.109375 -82.578125 C 63.523438 -82.316406 57.347656 -80.890625 51.578125 -78.296875 C 45.765625 -75.691406 41.300781 -71.660156 38.1875 -66.203125 C 35.019531 -60.742188 35.019531 -53.445312 38.1875 -44.3125 C 40.476562 -37.625 45.171875 -32.828125 52.265625 -29.921875 C 59.359375 -26.960938 66.578125 -25.84375 73.921875 -26.5625 C 79.535156 -27.113281 85.429688 -29.28125 91.609375 -33.0625 C 97.773438 -36.832031 103.945312 -35.503906 110.125 -29.078125 C 113.695312 -25.304688 113.644531 -21.554688 109.96875 -17.828125 C 106.25 -14.109375 103.007812 -11.253906 100.25 -9.265625 C 98.3125 -7.878906 96.398438 -6.703125 94.515625 -5.734375 C 89.304688 -2.984375 84.078125 -1.378906 78.828125 -0.921875 C 73.566406 -0.460938 68.335938 -0.460938 63.140625 -0.921875 C 56.203125 -1.578125 49.539062 -3.179688 43.15625 -5.734375 C 38.113281 -7.722656 33.296875 -10.378906 28.703125 -13.703125 C 24.054688 -16.960938 19.972656 -20.992188 16.453125 -25.796875 C 9.921875 -34.566406 5.5625 -44.335938 3.375 -55.109375 C -0.144531 -71.734375 3.878906 -85.609375 15.453125 -96.734375 C 21.273438 -102.347656 27.859375 -106.554688 35.203125 -109.359375 C 42.492188 -112.171875 49.5625 -114.132812 56.40625 -115.25 C 62.113281 -116.164062 67.953125 -116.625 73.921875 -116.625 C 79.890625 -116.625 85.734375 -115.988281 91.453125 -114.71875 Z M 91.453125 -114.71875 "/></g></g></g></g></g><g transform="matrix(1, 0, 0, 1, 125, 95)"><g clip-path="url(#f2515f5259)"><g fill="#7eb999" fill-opacity="1"><g transform="translate(0.608157, 160.323285)"><g><path d="M 6.28125 -44.546875 C 9.382812 -50.566406 12.773438 -55.335938 16.453125 -58.859375 C 17.929688 -60.234375 18.875 -61.097656 19.28125 -61.453125 C 25.15625 -66.609375 31.816406 -70.15625 39.265625 -72.09375 C 45.585938 -73.78125 51.734375 -73.804688 57.703125 -72.171875 C 60.503906 -71.347656 63.3125 -69.867188 66.125 -67.734375 C 68.925781 -65.535156 71.039062 -63.132812 72.46875 -60.53125 C 74 -57.570312 74.96875 -53.847656 75.375 -49.359375 C 75.9375 -42.722656 75.328125 -36.753906 73.546875 -31.453125 C 72.472656 -28.234375 70.890625 -25.125 68.796875 -22.125 C 66.703125 -19.0625 64.535156 -16.328125 62.296875 -13.921875 C 58.929688 -10.359375 55.101562 -7.328125 50.8125 -4.828125 C 46.53125 -2.328125 41.914062 -0.84375 36.96875 -0.375 C 31.8125 -0.0195312 26.960938 -0.609375 22.421875 -2.140625 C 18.796875 -3.367188 15.476562 -5.078125 12.46875 -7.265625 C 9.40625 -9.410156 7.0625 -12.191406 5.4375 -15.609375 C 3.75 -18.929688 2.828125 -22.785156 2.671875 -27.171875 C 2.421875 -33.441406 3.625 -39.234375 6.28125 -44.546875 Z M 26.171875 -33.90625 C 26.171875 -30.6875 28.007812 -27.34375 31.6875 -23.875 C 35.351562 -20.40625 39.078125 -19.585938 42.859375 -21.421875 C 45.253906 -22.597656 46.734375 -24.257812 47.296875 -26.40625 C 47.804688 -28.5 47.703125 -30.691406 46.984375 -32.984375 C 45.359375 -38.191406 41.484375 -41.328125 35.359375 -42.390625 C 29.234375 -43.460938 26.171875 -40.632812 26.171875 -33.90625 Z M 26.171875 -33.90625 "/></g></g></g></g></g><g transform="matrix(1, 0, 0, 1, 278, 88)"><g clip-path="url(#c583eecf17)"><g fill="#b0bafb" fill-opacity="1"><g transform="translate(12.145135, 164.633824)"><g><path d="M 7.09375 -76.484375 C 9.007812 -76.953125 11.164062 -77.191406 13.5625 -77.203125 C 15.957031 -77.265625 18.238281 -77.1875 20.40625 -76.96875 C 22.363281 -76.738281 23.941406 -76.507812 25.140625 -76.28125 C 25.390625 -76.25 25.753906 -76.117188 26.234375 -75.890625 C 26.441406 -75.753906 26.738281 -75.515625 27.125 -75.171875 L 28.078125 -74.390625 C 28.242188 -74.253906 28.546875 -73.972656 28.984375 -73.546875 C 29.160156 -73.296875 29.335938 -72.914062 29.515625 -72.40625 L 30.109375 -70.625 C 30.117188 -70.46875 30.253906 -69.863281 30.515625 -68.8125 C 30.671875 -68.101562 30.625 -62.191406 30.375 -51.078125 C 30.09375 -39.972656 31.523438 -27.210938 34.671875 -12.796875 C 34.671875 -11.203125 34.539062 -9.65625 34.28125 -8.15625 C 34.019531 -6.644531 33.726562 -5.601562 33.40625 -5.03125 C 32.851562 -4.070312 31.570312 -3.328125 29.5625 -2.796875 C 28.664062 -2.523438 27.65625 -2.351562 26.53125 -2.28125 C 25.425781 -2.15625 24.285156 -2.078125 23.109375 -2.046875 C 21.003906 -1.960938 18.722656 -2.046875 16.265625 -2.296875 C 14.410156 -2.429688 12.804688 -2.660156 11.453125 -2.984375 L 10.53125 -3.375 C 10.3125 -3.46875 9.960938 -3.703125 9.484375 -4.078125 C 9.265625 -4.203125 8.960938 -4.457031 8.578125 -4.84375 C 8.578125 -4.789062 8.300781 -5.082031 7.75 -5.71875 C 7.539062 -5.863281 7.335938 -6.238281 7.140625 -6.84375 C 6.960938 -7.238281 6.773438 -7.835938 6.578125 -8.640625 C 6.421875 -9.296875 5.179688 -17.929688 2.859375 -34.546875 C 0.554688 -51.117188 1.96875 -65.097656 7.09375 -76.484375 Z M 28.6875 -112.09375 C 32.332031 -108.65625 35.601562 -104.015625 38.5 -98.171875 C 39.15625 -96.734375 38.566406 -95.515625 36.734375 -94.515625 C 33.085938 -92.441406 29.300781 -90.585938 25.375 -88.953125 C 21.394531 -87.304688 17.410156 -85.632812 13.421875 -83.9375 C 12.585938 -83.582031 11.242188 -83.828125 9.390625 -84.671875 C 6.617188 -85.773438 4.179688 -87.84375 2.078125 -90.875 C 1.453125 -91.789062 1.453125 -92.578125 2.078125 -93.234375 C 7.929688 -99.304688 15.066406 -105.503906 23.484375 -111.828125 C 25.585938 -113.347656 27.320312 -113.4375 28.6875 -112.09375 Z M 28.6875 -112.09375 "/></g></g></g></g></g><g fill="#f6d636" fill-opacity="1"><g transform="translate(35.585547, 238.501324)"><g><path d="M 31.90625 -114.796875 C 37.414062 -115.410156 42.75 -115.867188 47.90625 -116.171875 C 50.457031 -116.328125 53.363281 -116.40625 56.625 -116.40625 C 59.539062 -116.457031 62.398438 -116.378906 65.203125 -116.171875 C 68.265625 -115.960938 70.941406 -115.707031 73.234375 -115.40625 C 75.941406 -114.945312 78.1875 -114.460938 79.96875 -113.953125 C 82.164062 -113.234375 83.851562 -112.519531 85.03125 -111.8125 C 89.414062 -109.050781 92.957031 -105.734375 95.65625 -101.859375 C 98.3125 -97.929688 98.644531 -93.363281 96.65625 -88.15625 C 96.5 -87.695312 96.320312 -87.265625 96.125 -86.859375 C 94.382812 -82.929688 91.753906 -79.382812 88.234375 -76.21875 C 87.929688 -75.914062 87.472656 -75.507812 86.859375 -75 C 86.554688 -74.75 86.046875 -74.367188 85.328125 -73.859375 C 85.679688 -73.703125 86.066406 -73.570312 86.484375 -73.46875 C 86.835938 -73.3125 87.21875 -73.1875 87.625 -73.09375 C 87.976562 -72.9375 88.363281 -72.804688 88.78125 -72.703125 C 89.132812 -72.546875 89.488281 -72.421875 89.84375 -72.328125 C 93.675781 -70.742188 97.097656 -68.929688 100.109375 -66.890625 C 100.515625 -66.628906 101.125 -66.195312 101.9375 -65.59375 C 105.050781 -63.238281 107.9375 -60.503906 110.59375 -57.390625 C 113.238281 -54.234375 114.992188 -50.738281 115.859375 -46.90625 C 116.066406 -45.84375 116.222656 -44.773438 116.328125 -43.703125 C 116.734375 -35.078125 114.285156 -28.132812 108.984375 -22.875 C 103.617188 -17.625 97.1875 -13.625 89.6875 -10.875 C 86.9375 -9.851562 83.625 -8.832031 79.75 -7.8125 C 75.664062 -6.738281 71.941406 -5.921875 68.578125 -5.359375 C 63.472656 -4.390625 58.265625 -3.519531 52.953125 -2.75 C 47.597656 -1.9375 42.34375 -1.144531 37.1875 -0.375 C 36.375 -0.175781 35.148438 -0.0507812 33.515625 0 L 29.765625 0 C 25.328125 0 21.628906 -0.535156 18.671875 -1.609375 C 15.660156 -2.628906 13.132812 -5.128906 11.09375 -9.109375 C 9.96875 -11.253906 9.050781 -13.523438 8.34375 -15.921875 C 7.570312 -18.265625 6.929688 -20.609375 6.421875 -22.953125 C 3.972656 -33.210938 2.367188 -44.109375 1.609375 -55.640625 C 0.835938 -67.117188 0.914062 -78.113281 1.84375 -88.625 C 2.144531 -91.6875 2.523438 -94.363281 2.984375 -96.65625 C 2.984375 -96.863281 3.007812 -97.066406 3.0625 -97.265625 C 3.113281 -97.472656 3.164062 -97.703125 3.21875 -97.953125 C 3.21875 -98.109375 3.269531 -98.316406 3.375 -98.578125 C 3.414062 -98.773438 3.460938 -98.976562 3.515625 -99.1875 C 3.617188 -99.539062 3.722656 -99.972656 3.828125 -100.484375 C 4.023438 -101.148438 4.148438 -101.582031 4.203125 -101.78125 C 4.921875 -104.03125 5.84375 -105.992188 6.96875 -107.671875 C 8.039062 -109.359375 9.800781 -110.632812 12.25 -111.5 C 12.550781 -111.601562 12.851562 -111.707031 13.15625 -111.8125 C 13.46875 -111.863281 13.773438 -111.960938 14.078125 -112.109375 C 19.335938 -113.179688 25.28125 -114.078125 31.90625 -114.796875 Z M 35.046875 -81.421875 C 35.046875 -81.328125 35.070312 -81.226562 35.125 -81.125 C 35.125 -81.019531 35.125 -80.941406 35.125 -80.890625 C 35.125 -80.785156 35.148438 -80.6875 35.203125 -80.59375 C 35.203125 -80.488281 35.203125 -80.410156 35.203125 -80.359375 L 35.359375 -79.828125 C 35.765625 -77.835938 37.140625 -76.890625 39.484375 -76.984375 C 41.785156 -77.085938 43.773438 -77.421875 45.453125 -77.984375 C 45.660156 -78.085938 45.84375 -78.140625 46 -78.140625 C 46.050781 -78.140625 46.125 -78.164062 46.21875 -78.21875 C 46.269531 -78.269531 46.347656 -78.320312 46.453125 -78.375 C 46.753906 -78.46875 46.929688 -78.515625 46.984375 -78.515625 C 50.046875 -79.847656 52.472656 -82.046875 54.265625 -85.109375 C 55.992188 -88.160156 56.019531 -91.144531 54.34375 -94.0625 C 54.238281 -94.15625 54.1875 -94.226562 54.1875 -94.28125 C 54.132812 -94.28125 54.082031 -94.304688 54.03125 -94.359375 C 53.976562 -94.410156 53.953125 -94.460938 53.953125 -94.515625 C 51.910156 -97.316406 48.671875 -98.71875 44.234375 -98.71875 C 44.078125 -98.71875 43.953125 -98.691406 43.859375 -98.640625 L 43.015625 -98.640625 C 42.910156 -98.640625 42.832031 -98.640625 42.78125 -98.640625 C 42.726562 -98.597656 42.675781 -98.578125 42.625 -98.578125 C 41.707031 -98.472656 40.507812 -98.191406 39.03125 -97.734375 C 37.957031 -97.421875 36.988281 -96.832031 36.125 -95.96875 L 35.96875 -95.8125 L 35.96875 -95.515625 L 35.890625 -95.4375 C 35.835938 -95.382812 35.8125 -95.332031 35.8125 -95.28125 L 35.734375 -95.203125 C 35.734375 -95.148438 35.707031 -95.097656 35.65625 -95.046875 L 35.65625 -94.96875 C 35.65625 -94.914062 35.609375 -94.84375 35.515625 -94.75 C 35.515625 -94.59375 35.488281 -94.488281 35.4375 -94.4375 C 35.4375 -94.28125 35.410156 -94.175781 35.359375 -94.125 C 35.253906 -92.289062 35.175781 -90.457031 35.125 -88.625 C 35.070312 -86.738281 35.046875 -84.875 35.046875 -83.03125 Z M 44.625 -17.53125 C 45.4375 -17.425781 46.300781 -17.375 47.21875 -17.375 C 47.9375 -17.320312 49.238281 -17.347656 51.125 -17.453125 C 54.4375 -17.597656 57.90625 -18.054688 61.53125 -18.828125 C 65.101562 -19.535156 68.289062 -20.8125 71.09375 -22.65625 C 75.84375 -25.769531 77.832031 -30.003906 77.0625 -35.359375 C 76.957031 -35.765625 76.90625 -36.046875 76.90625 -36.203125 C 76.863281 -36.304688 76.816406 -36.429688 76.765625 -36.578125 C 76.710938 -36.679688 76.6875 -36.8125 76.6875 -36.96875 C 75.613281 -40.6875 73.492188 -43.488281 70.328125 -45.375 C 67.117188 -47.21875 63.394531 -48.140625 59.15625 -48.140625 C 57.570312 -48.140625 55.988281 -48.0625 54.40625 -47.90625 C 51.09375 -47.65625 48.035156 -47.171875 45.234375 -46.453125 C 43.847656 -46.046875 42.625 -45.664062 41.5625 -45.3125 C 40.382812 -44.800781 39.566406 -44.316406 39.109375 -43.859375 C 38.492188 -43.347656 38.238281 -42.8125 38.34375 -42.25 C 38.445312 -41.476562 38.648438 -40.378906 38.953125 -38.953125 C 39.972656 -33.492188 41.222656 -28.265625 42.703125 -23.265625 C 43.003906 -22.191406 43.335938 -21.222656 43.703125 -20.359375 C 43.847656 -19.898438 44 -19.441406 44.15625 -18.984375 C 44.3125 -18.472656 44.46875 -17.988281 44.625 -17.53125 Z M 44.625 -17.53125 "/></g></g></g></svg>