<svg xmlns="http://www.w3.org/2000/svg" xmlns:xlink="http://www.w3.org/1999/xlink" width="500" zoomAndPan="magnify" viewBox="0 0 375 374.999991" height="500" preserveAspectRatio="xMidYMid meet" version="1.0"><defs><clipPath id="089852e5e8"><path d="M 2.5 3 L 63 3 L 63 33 L 2.5 33 Z M 2.5 3 " clip-rule="nonzero"/></clipPath><clipPath id="e49761c17c"><path d="M 249 3 L 308.210938 3 L 308.210938 33 L 249 33 Z M 249 3 " clip-rule="nonzero"/></clipPath><clipPath id="319778531a"><path d="M 122.164062 38.292969 L 187.675781 38.292969 L 187.675781 114.722656 L 122.164062 114.722656 Z M 122.164062 38.292969 " clip-rule="nonzero"/></clipPath><clipPath id="a29ea98330"><rect x="0" width="311" y="0" height="171"/></clipPath></defs><g transform="matrix(1, 0, 0, 1, 35, 102)"><g clip-path="url(#a29ea98330)"><g clip-path="url(#089852e5e8)"><path fill="#c88dd7" d="M 62.8125 32.414062 L 2.695312 32.414062 C 2.695312 16.824219 15.035156 4.09375 30.46875 3.476562 C 30.894531 3.398438 31.28125 3.398438 31.707031 3.398438 C 47.722656 3.398438 62.8125 16.398438 62.8125 32.414062 Z M 62.8125 32.414062 " fill-opacity="1" fill-rule="nonzero"/></g><path fill="#e1b1ed" d="M 30.46875 3.398438 L 31.707031 3.398438 C 31.28125 3.398438 30.894531 3.398438 30.46875 3.476562 Z M 30.46875 3.398438 " fill-opacity="1" fill-rule="nonzero"/><g clip-path="url(#e49761c17c)"><path fill="#c88dd7" d="M 249.007812 32.414062 L 308.703125 32.414062 C 308.703125 16.824219 296.363281 4.09375 280.925781 3.476562 C 280.5 3.398438 280.113281 3.398438 279.6875 3.398438 C 263.671875 3.398438 249.007812 16.398438 249.007812 32.414062 Z M 249.007812 32.414062 " fill-opacity="1" fill-rule="nonzero"/></g><path fill="#e1b1ed" d="M 280.925781 3.398438 L 279.6875 3.398438 C 280.113281 3.398438 280.5 3.398438 280.925781 3.476562 Z M 280.925781 3.398438 " fill-opacity="1" fill-rule="nonzero"/><path fill="#e1b1ed" d="M 155.699219 3.398438 L 31.707031 3.398438 C 47.722656 3.398438 60.722656 16.398438 60.722656 32.414062 L 60.722656 138.722656 L 155.699219 167.929688 L 250.671875 138.722656 L 250.671875 32.414062 C 250.671875 16.398438 263.671875 3.398438 279.6875 3.398438 Z M 155.699219 3.398438 " fill-opacity="1" fill-rule="nonzero"/><g clip-path="url(#319778531a)"><path fill="#000000" d="M 187.480469 107.734375 L 182.984375 58.484375 C 182.894531 57.527344 182.101562 56.796875 181.148438 56.796875 L 168.277344 56.796875 L 168.277344 51.730469 C 168.277344 44.320312 162.289062 38.292969 154.925781 38.292969 C 147.566406 38.292969 141.578125 44.320312 141.578125 51.730469 L 141.578125 56.796875 L 128.707031 56.796875 C 127.753906 56.796875 126.957031 57.527344 126.871094 58.484375 L 122.371094 107.734375 C 122.203125 109.574219 122.769531 111.269531 124.007812 112.632812 C 125.246094 114 126.871094 114.722656 128.707031 114.722656 L 181.148438 114.722656 C 182.984375 114.722656 184.609375 114 185.847656 112.632812 C 187.085938 111.269531 187.648438 109.574219 187.480469 107.734375 Z M 145.265625 51.730469 C 145.265625 46.367188 149.601562 42.007812 154.925781 42.007812 C 160.253906 42.007812 164.589844 46.367188 164.589844 51.730469 L 164.589844 56.796875 L 145.265625 56.796875 Z M 183.121094 110.132812 C 182.585938 110.722656 181.941406 111.007812 181.148438 111.007812 L 128.707031 111.007812 C 127.914062 111.007812 127.265625 110.722656 126.730469 110.132812 C 126.199219 109.542969 125.972656 108.867188 126.046875 108.074219 L 130.390625 60.511719 L 141.578125 60.511719 L 141.578125 64.535156 C 141.578125 65.5625 142.402344 66.390625 143.421875 66.390625 C 144.441406 66.390625 145.265625 65.5625 145.265625 64.535156 L 145.265625 60.511719 L 164.589844 60.511719 L 164.589844 64.535156 C 164.589844 65.5625 165.414062 66.390625 166.433594 66.390625 C 167.453125 66.390625 168.277344 65.5625 168.277344 64.535156 L 168.277344 60.511719 L 179.464844 60.511719 L 183.808594 108.074219 C 183.878906 108.867188 183.65625 109.542969 183.121094 110.132812 Z M 183.121094 110.132812 " fill-opacity="1" fill-rule="nonzero"/></g></g></g></svg>