<svg width="34" height="37" viewBox="0 0 34 37" fill="none" xmlns="http://www.w3.org/2000/svg">
<path d="M1.75 8.41667H5.08333M5.08333 8.41667H31.75M5.08333 8.41667L5.08333 31.75C5.08333 32.6341 5.43452 33.4819 6.05964 34.107C6.68477 34.7321 7.53261 35.0833 8.41667 35.0833H25.0833C25.9674 35.0833 26.8152 34.7321 27.4404 34.107C28.0655 33.4819 28.4167 32.6341 28.4167 31.75V8.41667M10.0833 8.41667V5.08333C10.0833 4.19928 10.4345 3.35143 11.0596 2.72631C11.6848 2.10119 12.5326 1.75 13.4167 1.75H20.0833C20.9674 1.75 21.8152 2.10119 22.4404 2.72631C23.0655 3.35143 23.4167 4.19928 23.4167 5.08333V8.41667M13.4167 16.75V26.75M20.0833 16.75V26.75" stroke="#FDFDFD" stroke-width="3.5" stroke-linecap="round" stroke-linejoin="round"/>
</svg>
