<svg width="50" height="50" viewBox="0 0 50 50" fill="none" xmlns="http://www.w3.org/2000/svg">
<path d="M22.9166 8.33333H8.33329C7.22822 8.33333 6.16842 8.77231 5.38701 9.55372C4.60561 10.3351 4.16663 11.3949 4.16663 12.5V41.6667C4.16663 42.7717 4.60561 43.8315 5.38701 44.6129C6.16842 45.3943 7.22822 45.8333 8.33329 45.8333H37.5C38.605 45.8333 39.6648 45.3943 40.4462 44.6129C41.2276 43.8315 41.6666 42.7717 41.6666 41.6667V27.0833M38.5416 5.20833C39.3704 4.37953 40.4945 3.91391 41.6666 3.91391C42.8387 3.91391 43.9628 4.37953 44.7916 5.20833C45.6204 6.03713 46.086 7.16122 46.086 8.33333C46.086 9.50543 45.6204 10.6295 44.7916 11.4583L25 31.25L16.6666 33.3333L18.75 25L38.5416 5.20833Z" stroke="#7EB999" stroke-width="3.5" stroke-linecap="round" stroke-linejoin="round"/>
</svg>
