<svg width="46" height="46" viewBox="0 0 46 46" fill="none" xmlns="http://www.w3.org/2000/svg">
<path d="M20.5 6.16942H5.91666C4.81159 6.16942 3.75179 6.6084 2.97038 7.38981C2.18898 8.17119 1.75 9.23099 1.75 10.3361V39.5028C1.75 40.6078 2.18898 41.6676 2.97038 42.449C3.75179 43.2304 4.81159 43.6694 5.91666 43.6694H35.0834C36.1884 43.6694 37.2482 43.2304 38.0296 42.449C38.811 41.6676 39.25 40.6078 39.25 39.5028V24.9194M36.125 3.04442C36.9538 2.21562 38.0779 1.75 39.25 1.75C40.4221 1.75 41.5462 2.21562 42.375 3.04442C43.2038 3.87322 43.6694 4.99731 43.6694 6.16942C43.6694 7.34152 43.2038 8.46559 42.375 9.29439L22.5834 29.0861L14.25 31.1694L16.3334 22.8361L36.125 3.04442Z" stroke="#FDFDFD" stroke-width="3.5" stroke-linecap="round" stroke-linejoin="round"/>
</svg>
