<svg xmlns="http://www.w3.org/2000/svg" xmlns:xlink="http://www.w3.org/1999/xlink" width="500" zoomAndPan="magnify" viewBox="0 0 375 374.999991" height="500" preserveAspectRatio="xMidYMid meet" version="1.0"><defs><clipPath id="addc74a0ee"><path d="M 88.148438 84.539062 L 269.648438 84.539062 L 269.648438 266 L 88.148438 266 Z M 88.148438 84.539062 " clip-rule="nonzero"/></clipPath></defs><g clip-path="url(#addc74a0ee)"><path fill="#000000" d="M 141.292969 85.160156 C 131.640625 85.613281 125.046875 87.164062 119.285156 89.417969 C 113.320312 91.746094 108.265625 94.855469 103.238281 99.910156 C 98.203125 104.960938 95.109375 110.023438 92.808594 116 C 90.578125 121.777344 89.066406 128.371094 88.636719 138.03125 C 88.210938 147.699219 88.117188 150.785156 88.160156 175.425781 C 88.203125 200.054688 88.3125 203.148438 88.773438 212.828125 C 89.234375 222.480469 90.773438 229.0625 93.03125 234.832031 C 95.355469 240.800781 98.46875 245.84375 103.523438 250.878906 C 108.574219 255.914062 113.636719 259 119.613281 261.308594 C 125.382812 263.542969 131.980469 265.0625 141.632812 265.480469 C 151.3125 265.910156 154.398438 266.003906 179.027344 265.953125 C 203.667969 265.910156 206.753906 265.796875 216.429688 265.335938 C 226.082031 264.875 232.667969 263.328125 238.4375 261.078125 C 244.40625 258.746094 249.457031 255.640625 254.484375 250.589844 C 259.511719 245.535156 262.605469 240.476562 264.914062 234.5 C 267.144531 228.730469 268.667969 222.128906 269.085938 212.484375 C 269.503906 202.808594 269.609375 199.710938 269.566406 175.082031 C 269.523438 150.453125 269.402344 147.367188 268.949219 137.6875 C 268.488281 128.027344 266.949219 121.445312 264.691406 115.675781 C 262.359375 109.707031 259.253906 104.664062 254.203125 99.625 C 249.148438 94.601562 244.089844 91.496094 238.113281 89.195312 C 232.339844 86.964844 225.742188 85.445312 216.089844 85.023438 C 206.410156 84.597656 203.316406 84.503906 178.6875 84.546875 C 154.054688 84.589844 150.96875 84.699219 141.292969 85.160156 M 142.351562 249.144531 C 133.511719 248.757812 128.707031 247.289062 125.5 246.058594 C 121.261719 244.417969 118.242188 242.449219 115.054688 239.296875 C 111.875 236.125 109.90625 233.105469 108.25 228.882812 C 107.011719 225.683594 105.515625 220.890625 105.09375 212.039062 C 104.640625 202.484375 104.539062 199.609375 104.496094 175.390625 C 104.453125 151.179688 104.539062 148.304688 104.957031 138.738281 C 105.335938 129.898438 106.8125 125.09375 108.042969 121.898438 C 109.6875 117.65625 111.644531 114.640625 114.808594 111.449219 C 117.980469 108.269531 120.996094 106.304688 125.226562 104.644531 C 128.425781 103.398438 133.222656 101.910156 142.0625 101.492188 C 151.628906 101.039062 154.492188 100.945312 178.710938 100.890625 C 202.933594 100.839844 205.804688 100.925781 215.371094 101.355469 C 224.210938 101.738281 229.015625 103.199219 232.214844 104.441406 C 236.453125 106.082031 239.480469 108.03125 242.660156 111.203125 C 245.839844 114.375 247.816406 117.382812 249.464844 121.625 C 250.714844 124.8125 252.203125 129.617188 252.621094 138.449219 C 253.074219 148.015625 253.175781 150.886719 253.21875 175.097656 C 253.261719 199.320312 253.175781 202.191406 252.757812 211.75 C 252.371094 220.589844 250.902344 225.402344 249.671875 228.601562 C 248.03125 232.832031 246.070312 235.859375 242.898438 239.039062 C 239.726562 242.210938 236.71875 244.1875 232.476562 245.84375 C 229.289062 247.09375 224.484375 248.578125 215.652344 249 C 206.085938 249.453125 203.222656 249.554688 178.996094 249.597656 C 154.78125 249.640625 151.910156 249.554688 142.34375 249.136719 M 216.304688 126.761719 C 216.3125 132.773438 221.203125 137.636719 227.203125 137.621094 C 233.214844 137.609375 238.078125 132.730469 238.070312 126.71875 C 238.0625 120.710938 233.171875 115.84375 227.160156 115.851562 C 221.152344 115.863281 216.285156 120.753906 216.292969 126.753906 M 132.28125 175.339844 C 132.332031 201.0625 153.226562 221.871094 178.941406 221.820312 C 204.667969 221.769531 225.484375 200.882812 225.433594 175.160156 C 225.382812 149.441406 204.488281 128.625 178.761719 128.667969 C 153.046875 128.71875 132.230469 149.613281 132.28125 175.339844 M 148.617188 175.304688 C 148.59375 158.609375 162.101562 145.039062 178.796875 145.015625 C 195.496094 144.980469 209.0625 158.488281 209.097656 175.195312 C 209.128906 191.890625 195.613281 205.457031 178.917969 205.484375 C 162.222656 205.519531 148.652344 192 148.628906 175.304688 " fill-opacity="1" fill-rule="nonzero"/></g></svg>