<svg xmlns="http://www.w3.org/2000/svg" xmlns:xlink="http://www.w3.org/1999/xlink" width="500" zoomAndPan="magnify" viewBox="0 0 375 374.999991" height="500" preserveAspectRatio="xMidYMid meet" version="1.0"><defs><clipPath id="7609c13e84"><path d="M 96.097656 96 L 267 96 L 267 266.402344 L 96.097656 266.402344 Z M 96.097656 96 " clip-rule="nonzero"/></clipPath><clipPath id="43be7d0d2e"><path d="M 1 0 L 170.640625 0 L 170.640625 170 L 1 170 Z M 1 0 " clip-rule="nonzero"/></clipPath><clipPath id="567506aa09"><rect x="0" width="171" y="0" height="171"/></clipPath></defs><g clip-path="url(#7609c13e84)"><g transform="matrix(1, 0, 0, 1, 96, 96)"><g clip-path="url(#567506aa09)"><g clip-path="url(#43be7d0d2e)"><path fill="#7eb999" d="M 1.308594 87.304688 C 1.265625 85.921875 1.257812 84.535156 1.285156 83.152344 C 1.3125 81.769531 1.375 80.386719 1.46875 79.003906 C 1.5625 77.625 1.691406 76.246094 1.855469 74.871094 C 2.019531 73.496094 2.214844 72.125 2.445312 70.761719 C 2.671875 69.394531 2.9375 68.039062 3.234375 66.683594 C 3.53125 65.332031 3.859375 63.988281 4.222656 62.652344 C 4.585938 61.316406 4.980469 59.992188 5.40625 58.675781 C 5.835938 57.355469 6.292969 56.050781 6.785156 54.757812 C 7.277344 53.464844 7.800781 52.183594 8.355469 50.914062 C 8.910156 49.644531 9.496094 48.390625 10.109375 47.152344 C 10.726562 45.914062 11.371094 44.6875 12.050781 43.480469 C 12.726562 42.273438 13.429688 41.082031 14.164062 39.910156 C 14.898438 38.734375 15.664062 37.582031 16.453125 36.445312 C 17.246094 35.308594 18.0625 34.195312 18.910156 33.097656 C 19.757812 32.003906 20.628906 30.929688 21.527344 29.875 C 22.425781 28.824219 23.351562 27.792969 24.300781 26.785156 C 25.25 25.777344 26.222656 24.792969 27.21875 23.832031 C 28.21875 22.875 29.238281 21.941406 30.28125 21.03125 C 31.324219 20.121094 32.390625 19.238281 33.476562 18.378906 C 34.566406 17.523438 35.671875 16.691406 36.800781 15.890625 C 37.925781 15.085938 39.074219 14.3125 40.238281 13.566406 C 41.40625 12.816406 42.589844 12.101562 43.789062 11.410156 C 44.988281 10.722656 46.207031 10.066406 47.441406 9.4375 C 48.671875 8.808594 49.921875 8.207031 51.183594 7.640625 C 52.445312 7.074219 53.722656 6.539062 55.011719 6.03125 C 56.300781 5.527344 57.601562 5.054688 58.914062 4.613281 C 60.226562 4.171875 61.546875 3.761719 62.878906 3.386719 C 64.210938 3.011719 65.550781 2.667969 66.902344 2.355469 C 68.25 2.046875 69.605469 1.769531 70.96875 1.527344 C 72.332031 1.28125 73.699219 1.070312 75.074219 0.894531 C 76.445312 0.71875 77.820312 0.574219 79.203125 0.464844 C 80.582031 0.355469 81.964844 0.28125 83.347656 0.242188 C 84.730469 0.199219 86.117188 0.191406 87.5 0.21875 C 88.882812 0.246094 90.265625 0.304688 91.648438 0.402344 C 93.027344 0.496094 94.40625 0.625 95.78125 0.785156 C 97.15625 0.949219 98.527344 1.144531 99.890625 1.371094 C 101.257812 1.601562 102.613281 1.863281 103.96875 2.160156 C 105.320312 2.457031 106.664062 2.785156 108 3.148438 C 109.335938 3.511719 110.660156 3.90625 111.980469 4.332031 C 113.296875 4.757812 114.601562 5.21875 115.894531 5.710938 C 117.1875 6.199219 118.472656 6.722656 119.738281 7.277344 C 121.007812 7.832031 122.261719 8.417969 123.5 9.03125 C 124.742188 9.648438 125.964844 10.292969 127.175781 10.96875 C 128.382812 11.644531 129.574219 12.351562 130.746094 13.085938 C 131.921875 13.820312 133.074219 14.582031 134.210938 15.371094 C 135.347656 16.164062 136.464844 16.980469 137.558594 17.828125 C 138.65625 18.671875 139.730469 19.546875 140.78125 20.445312 C 141.835938 21.34375 142.867188 22.265625 143.875 23.214844 C 144.882812 24.164062 145.867188 25.136719 146.824219 26.136719 C 147.785156 27.132812 148.71875 28.152344 149.628906 29.195312 C 150.539062 30.238281 151.425781 31.304688 152.28125 32.390625 C 153.140625 33.476562 153.96875 34.585938 154.773438 35.710938 C 155.578125 36.839844 156.351562 37.984375 157.097656 39.152344 C 157.84375 40.316406 158.5625 41.5 159.253906 42.699219 C 159.941406 43.902344 160.601562 45.117188 161.230469 46.351562 C 161.859375 47.585938 162.457031 48.832031 163.023438 50.09375 C 163.59375 51.355469 164.128906 52.632812 164.636719 53.921875 C 165.140625 55.210938 165.613281 56.511719 166.054688 57.824219 C 166.496094 59.132812 166.90625 60.457031 167.28125 61.789062 C 167.660156 63.121094 168.003906 64.460938 168.3125 65.808594 C 168.625 67.160156 168.902344 68.515625 169.144531 69.878906 C 169.390625 71.238281 169.601562 72.609375 169.777344 73.980469 C 169.957031 75.355469 170.097656 76.730469 170.207031 78.109375 C 170.316406 79.488281 170.394531 80.871094 170.433594 82.253906 C 170.476562 83.640625 170.484375 85.023438 170.457031 86.40625 C 170.433594 87.792969 170.371094 89.171875 170.277344 90.554688 C 170.183594 91.9375 170.054688 93.3125 169.894531 94.6875 C 169.734375 96.0625 169.539062 97.433594 169.308594 98.800781 C 169.078125 100.164062 168.816406 101.523438 168.523438 102.875 C 168.226562 104.226562 167.898438 105.570312 167.535156 106.90625 C 167.175781 108.246094 166.78125 109.570312 166.351562 110.886719 C 165.925781 112.203125 165.46875 113.511719 164.976562 114.804688 C 164.484375 116.097656 163.964844 117.378906 163.410156 118.648438 C 162.855469 119.917969 162.269531 121.171875 161.65625 122.414062 C 161.039062 123.652344 160.394531 124.875 159.71875 126.085938 C 159.042969 127.292969 158.339844 128.484375 157.605469 129.65625 C 156.871094 130.832031 156.109375 131.988281 155.320312 133.125 C 154.527344 134.257812 153.710938 135.375 152.863281 136.472656 C 152.019531 137.566406 151.148438 138.644531 150.25 139.695312 C 149.351562 140.75 148.425781 141.78125 147.480469 142.789062 C 146.53125 143.796875 145.558594 144.78125 144.558594 145.742188 C 143.5625 146.703125 142.542969 147.636719 141.5 148.546875 C 140.457031 149.457031 139.390625 150.339844 138.304688 151.199219 C 137.21875 152.058594 136.113281 152.886719 134.984375 153.691406 C 133.859375 154.496094 132.710938 155.269531 131.546875 156.019531 C 130.382812 156.765625 129.199219 157.484375 128 158.171875 C 126.796875 158.863281 125.582031 159.523438 124.347656 160.152344 C 123.117188 160.78125 121.867188 161.378906 120.605469 161.949219 C 119.34375 162.515625 118.066406 163.054688 116.78125 163.558594 C 115.492188 164.066406 114.191406 164.539062 112.878906 164.980469 C 111.566406 165.421875 110.246094 165.832031 108.914062 166.210938 C 107.582031 166.585938 106.242188 166.929688 104.890625 167.242188 C 103.542969 167.550781 102.1875 167.832031 100.824219 168.074219 C 99.460938 168.320312 98.09375 168.53125 96.722656 168.707031 C 95.347656 168.886719 93.972656 169.03125 92.59375 169.140625 C 91.210938 169.25 89.832031 169.324219 88.445312 169.367188 C 87.0625 169.410156 85.675781 169.417969 84.292969 169.390625 C 82.90625 169.367188 81.523438 169.304688 80.140625 169.210938 C 78.757812 169.117188 77.378906 168.992188 76.003906 168.828125 C 74.628906 168.667969 73.257812 168.472656 71.890625 168.242188 C 70.523438 168.015625 69.164062 167.753906 67.8125 167.457031 C 66.457031 167.160156 65.113281 166.832031 63.773438 166.46875 C 62.4375 166.109375 61.109375 165.714844 59.792969 165.285156 C 58.472656 164.859375 57.167969 164.402344 55.871094 163.910156 C 54.578125 163.417969 53.292969 162.894531 52.023438 162.339844 C 50.753906 161.785156 49.5 161.203125 48.257812 160.585938 C 47.019531 159.96875 45.792969 159.324219 44.582031 158.648438 C 43.375 157.972656 42.183594 157.265625 41.007812 156.53125 C 39.832031 155.796875 38.679688 155.035156 37.539062 154.242188 C 36.402344 153.453125 35.285156 152.632812 34.191406 151.785156 C 33.09375 150.941406 32.019531 150.066406 30.964844 149.167969 C 29.910156 148.269531 28.878906 147.34375 27.871094 146.394531 C 26.863281 145.445312 25.875 144.472656 24.917969 143.472656 C 23.957031 142.472656 23.019531 141.453125 22.109375 140.410156 C 21.199219 139.363281 20.316406 138.300781 19.457031 137.210938 C 18.597656 136.125 17.765625 135.015625 16.964844 133.886719 C 16.160156 132.757812 15.382812 131.613281 14.636719 130.445312 C 13.890625 129.277344 13.171875 128.09375 12.480469 126.894531 C 11.792969 125.691406 11.132812 124.472656 10.503906 123.238281 C 9.875 122.003906 9.277344 120.757812 8.707031 119.492188 C 8.140625 118.230469 7.601562 116.953125 7.097656 115.664062 C 6.59375 114.371094 6.121094 113.070312 5.679688 111.757812 C 5.238281 110.445312 4.828125 109.121094 4.453125 107.789062 C 4.074219 106.453125 3.730469 105.113281 3.421875 103.761719 C 3.109375 102.414062 2.832031 101.054688 2.589844 99.691406 C 2.347656 98.328125 2.136719 96.960938 1.960938 95.585938 C 1.78125 94.210938 1.640625 92.832031 1.53125 91.453125 C 1.421875 90.070312 1.347656 88.6875 1.308594 87.304688 Z M 111.589844 129.121094 L 72.796875 84.765625 L 111.589844 40.410156 L 102.527344 32.433594 L 56.722656 84.765625 L 102.527344 137.097656 Z M 111.589844 129.121094 " fill-opacity="1" fill-rule="nonzero"/></g></g></g></g></svg>