<svg width="228" height="228" viewBox="0 0 228 228" fill="none" xmlns="http://www.w3.org/2000/svg">
<mask id="mask0_1004_17" style="mask-type:luminance" maskUnits="userSpaceOnUse" x="0" y="0" width="228" height="228">
<path d="M0 0H227.87V227.203H0V0Z" fill="white"/>
</mask>
<g mask="url(#mask0_1004_17)">
<mask id="mask1_1004_17" style="mask-type:luminance" maskUnits="userSpaceOnUse" x="-1" y="0" width="229" height="228">
<path d="M227.87 0H-0.130249V228H227.87V0Z" fill="white"/>
</mask>
<g mask="url(#mask1_1004_17)">
<mask id="mask2_1004_17" style="mask-type:luminance" maskUnits="userSpaceOnUse" x="1" y="0" width="227" height="227">
<path d="M1.20312 0H227.391V226.667H1.20312V0Z" fill="white"/>
</mask>
<g mask="url(#mask2_1004_17)">
<circle cx="114" cy="114" r="113" fill="#e1b1ed"/>
<path d="M1.61453 116.406C1.55724 114.562 1.54682 112.714 1.58328 110.87C1.61974 109.026 1.70307 107.182 1.82807 105.339C1.95307 103.5 2.12495 101.661 2.3437 99.8281C2.56245 97.9948 2.82286 96.1667 3.13015 94.349C3.43224 92.526 3.7864 90.7187 4.18224 88.9115C4.57807 87.1094 5.01557 85.3177 5.49995 83.5364C5.98432 81.7552 6.51036 79.9896 7.07807 78.2344C7.65099 76.4739 8.26036 74.7344 8.91661 73.0104C9.57286 71.2864 10.2708 69.5781 11.0104 67.8854C11.7499 66.1927 12.5312 64.5208 13.3489 62.8698C14.1718 61.2187 15.0312 59.5833 15.9374 57.9739C16.8385 56.3646 17.776 54.776 18.7552 53.2135C19.7343 51.6458 20.7552 50.1094 21.8072 48.5937C22.8645 47.0781 23.9531 45.5937 25.0833 44.1302C26.2135 42.6719 27.3749 41.2396 28.5729 39.8333C29.7708 38.4323 31.0052 37.0573 32.2708 35.7135C33.5364 34.3698 34.8333 33.0573 36.1614 31.776C37.4947 30.5 38.8541 29.2552 40.2447 28.0417C41.6354 26.8281 43.0572 25.651 44.5052 24.5052C45.9583 23.3646 47.4322 22.2552 48.9374 21.1875C50.4374 20.1146 51.9687 19.0833 53.5208 18.0885C55.0781 17.0885 56.6562 16.1354 58.2552 15.2135C59.8541 14.2969 61.4791 13.4219 63.1249 12.5833C64.7656 11.7448 66.4322 10.9427 68.1145 10.1875C69.7968 9.43228 71.4999 8.71874 73.2187 8.04165C74.9374 7.36978 76.6718 6.73957 78.4218 6.15103C80.1718 5.56249 81.9322 5.01561 83.7083 4.51561C85.4843 4.01561 87.2708 3.55728 89.0729 3.14061C90.8697 2.72915 92.677 2.35936 94.4947 2.03645C96.3125 1.70832 98.1354 1.42707 99.9687 1.19269C101.797 0.95832 103.63 0.765612 105.474 0.619778C107.312 0.473945 109.156 0.374986 111 0.322904C112.844 0.265612 114.693 0.255194 116.536 0.291653C118.38 0.328112 120.224 0.406237 122.068 0.536445C123.906 0.661445 125.745 0.83332 127.578 1.04686C129.411 1.26561 131.24 1.52603 133.057 1.82811C134.88 2.1354 136.687 2.48436 138.495 2.88019C140.297 3.27603 142.088 3.71353 143.87 4.1979C145.651 4.68228 147.417 5.20832 149.177 5.77603C150.932 6.34374 152.672 6.95832 154.396 7.61457C156.12 8.26561 157.833 8.96353 159.521 9.70311C161.213 10.4427 162.885 11.2239 164.536 12.0417C166.193 12.8646 167.823 13.7239 169.437 14.625C171.047 15.526 172.635 16.4687 174.198 17.4479C175.766 18.4271 177.302 19.4427 178.818 20.4948C180.333 21.5521 181.823 22.6406 183.281 23.7708C184.745 24.8958 186.177 26.0625 187.578 27.2604C188.984 28.4583 190.359 29.6875 191.703 30.9531C193.047 32.2187 194.359 33.5156 195.635 34.8489C196.917 36.1771 198.161 37.5364 199.375 38.9271C200.588 40.3177 201.771 41.7396 202.911 43.1875C204.057 44.6354 205.161 46.1146 206.234 47.6146C207.307 49.1198 208.338 50.6458 209.333 52.2031C210.328 53.7552 211.286 55.3333 212.208 56.9323C213.125 58.5364 214.005 60.1562 214.844 61.8021C215.682 63.4479 216.479 65.1094 217.234 66.7917C217.995 68.4739 218.708 70.1771 219.385 71.8958C220.057 73.6146 220.687 75.3489 221.276 77.0989C221.865 78.8437 222.411 80.6094 222.911 82.3854C223.417 84.1614 223.875 85.9479 224.286 87.7448C224.703 89.5469 225.073 91.3542 225.396 93.1719C225.724 94.9844 226.005 96.8125 226.24 98.6406C226.479 100.474 226.667 102.307 226.812 104.146C226.958 105.984 227.062 107.828 227.115 109.672C227.172 111.521 227.182 113.365 227.146 115.208C227.115 117.057 227.031 118.896 226.906 120.74C226.781 122.583 226.609 124.417 226.396 126.25C226.182 128.083 225.922 129.911 225.615 131.734C225.307 133.552 224.958 135.365 224.568 137.167C224.172 138.969 223.734 140.76 223.25 142.542C222.771 144.328 222.245 146.094 221.672 147.849C221.104 149.604 220.495 151.349 219.838 153.073C219.182 154.797 218.49 156.505 217.75 158.198C217.01 159.891 216.229 161.562 215.411 163.219C214.588 164.87 213.729 166.5 212.828 168.115C211.927 169.724 210.99 171.312 210.01 172.875C209.031 174.443 208.016 175.984 206.963 177.5C205.906 179.01 204.818 180.5 203.687 181.964C202.562 183.422 201.401 184.859 200.203 186.26C199.005 187.667 197.771 189.042 196.51 190.385C195.245 191.729 193.948 193.042 192.615 194.323C191.286 195.604 189.927 196.849 188.536 198.062C187.146 199.276 185.724 200.453 184.276 201.599C182.828 202.745 181.354 203.849 179.849 204.922C178.349 205.995 176.818 207.026 175.266 208.026C173.713 209.021 172.135 209.979 170.536 210.896C168.932 211.818 167.312 212.698 165.667 213.536C164.026 214.375 162.359 215.172 160.677 215.932C158.995 216.687 157.292 217.406 155.578 218.078C153.859 218.755 152.125 219.385 150.375 219.974C148.625 220.562 146.865 221.109 145.088 221.615C143.312 222.115 141.526 222.573 139.724 222.99C137.927 223.401 136.12 223.776 134.302 224.099C132.484 224.427 130.661 224.708 128.833 224.943C127 225.182 125.167 225.375 123.328 225.521C121.484 225.667 119.646 225.766 117.797 225.823C115.953 225.88 114.104 225.891 112.26 225.854C110.411 225.823 108.568 225.74 106.724 225.615C104.88 225.49 103.042 225.323 101.208 225.104C99.375 224.891 97.5468 224.63 95.7239 224.323C93.901 224.021 92.0885 223.672 90.2864 223.276C88.4791 222.88 86.6874 222.443 84.901 221.958C83.1197 221.479 81.3489 220.953 79.5937 220.38C77.8333 219.812 76.0937 219.203 74.3645 218.547C72.6406 217.891 70.927 217.193 69.2343 216.453C67.5416 215.714 65.8697 214.937 64.2135 214.115C62.5624 213.292 60.927 212.432 59.3124 211.531C57.7031 210.63 56.1145 209.687 54.5468 208.708C52.9791 207.729 51.4427 206.714 49.9218 205.656C48.4062 204.604 46.9166 203.51 45.4583 202.38C43.9947 201.255 42.5624 200.089 41.1562 198.891C39.7499 197.693 38.3749 196.458 37.0312 195.193C35.6874 193.927 34.3697 192.63 33.0937 191.297C31.8124 189.964 30.5624 188.604 29.3489 187.214C28.1354 185.818 26.9583 184.401 25.8124 182.948C24.6666 181.5 23.5572 180.021 22.4895 178.516C21.4166 177.01 20.3802 175.484 19.3854 173.927C18.3906 172.37 17.4322 170.792 16.5104 169.193C15.5937 167.589 14.7135 165.964 13.8749 164.318C13.0364 162.672 12.2395 161.01 11.4791 159.323C10.7239 157.641 10.0052 155.937 9.33328 154.219C8.6614 152.495 8.0312 150.76 7.44266 149.01C6.85411 147.26 6.30724 145.495 5.80724 143.719C5.30203 141.937 4.8437 140.151 4.43224 138.349C4.01557 136.552 3.64578 134.74 3.32286 132.922C2.99995 131.104 2.7187 129.281 2.48432 127.448C2.24474 125.615 2.05724 123.776 1.9114 121.937C1.76557 120.094 1.66661 118.25 1.61453 116.406ZM148.656 172.161L96.9322 113.021L148.656 53.8802L136.573 43.2448L75.4999 113.021L136.573 182.797L148.656 172.161Z" fill="#fdfdfd" fill-rule="evenodd" clip-rule="evenodd"/>
</g>
</g>
</g>
</svg>
