<svg xmlns="http://www.w3.org/2000/svg" xmlns:xlink="http://www.w3.org/1999/xlink" width="500" zoomAndPan="magnify" viewBox="0 0 375 374.999991" height="500" preserveAspectRatio="xMidYMid meet" version="1.0"><path fill="#000000" d="M 68.023438 290.363281 L 68.023438 271.050781 C 68.023438 263.664062 63.523438 258.824219 55.796875 258.824219 C 51.929688 258.824219 47.730469 260.101562 44.839844 264.300781 C 42.589844 260.773438 39.363281 258.824219 34.527344 258.824219 C 31.300781 258.824219 28.074219 259.800781 25.523438 263.324219 L 25.523438 259.460938 L 18.769531 259.460938 L 18.769531 290.363281 L 25.523438 290.363281 L 25.523438 273.300781 C 25.523438 267.824219 28.410156 265.238281 32.914062 265.238281 C 37.414062 265.238281 39.664062 268.125 39.664062 273.300781 L 39.664062 290.363281 L 46.417969 290.363281 L 46.417969 273.300781 C 46.417969 267.824219 49.644531 265.238281 53.808594 265.238281 C 58.308594 265.238281 60.558594 268.125 60.558594 273.300781 L 60.558594 290.363281 Z M 168.179688 259.460938 L 157.226562 259.460938 L 157.226562 250.125 L 150.476562 250.125 L 150.476562 259.460938 L 144.359375 259.460938 L 144.359375 265.574219 L 150.476562 265.574219 L 150.476562 279.75 C 150.476562 286.835938 153.363281 291 161.089844 291 C 163.980469 291 167.207031 290.023438 169.457031 288.75 L 167.507812 282.9375 C 165.554688 284.210938 163.304688 284.550781 161.691406 284.550781 C 158.464844 284.550781 157.191406 282.601562 157.191406 279.414062 L 157.191406 265.574219 L 168.144531 265.574219 L 168.144531 259.460938 Z M 225.5 258.789062 C 221.636719 258.789062 219.046875 260.738281 217.433594 263.289062 L 217.433594 259.425781 L 210.683594 259.425781 L 210.683594 290.324219 L 217.433594 290.324219 L 217.433594 272.925781 C 217.433594 267.789062 219.683594 264.863281 223.886719 264.863281 C 225.164062 264.863281 226.773438 265.199219 228.089844 265.5 L 230.039062 259.050781 C 228.6875 258.789062 226.773438 258.789062 225.5 258.789062 Z M 138.882812 262.011719 C 135.660156 259.761719 131.15625 258.789062 126.316406 258.789062 C 118.589844 258.789062 113.449219 262.648438 113.449219 268.761719 C 113.449219 273.898438 117.316406 276.824219 124.066406 277.761719 L 127.292969 278.101562 C 130.820312 278.738281 132.769531 279.710938 132.769531 281.324219 C 132.769531 283.574219 130.179688 285.1875 125.679688 285.1875 C 121.179688 285.1875 117.613281 283.574219 115.363281 281.960938 L 112.136719 287.101562 C 115.664062 289.6875 120.503906 290.960938 125.34375 290.960938 C 134.34375 290.960938 139.523438 286.761719 139.523438 280.988281 C 139.523438 275.511719 135.320312 272.625 128.90625 271.648438 L 125.679688 271.3125 C 122.792969 270.976562 120.539062 270.335938 120.539062 268.425781 C 120.539062 266.175781 122.792969 264.898438 126.355469 264.898438 C 130.21875 264.898438 134.082031 266.511719 136.035156 267.488281 Z M 318.53125 258.789062 C 314.664062 258.789062 312.078125 260.738281 310.464844 263.289062 L 310.464844 259.425781 L 303.710938 259.425781 L 303.710938 290.324219 L 310.464844 290.324219 L 310.464844 272.925781 C 310.464844 267.789062 312.714844 264.863281 316.917969 264.863281 C 318.191406 264.863281 319.804688 265.199219 321.117188 265.5 L 323.070312 259.125 C 321.753906 258.789062 319.84375 258.789062 318.53125 258.789062 Z M 232.25 274.914062 C 232.25 284.25 238.703125 291 248.683594 291 C 253.183594 291 256.410156 290.023438 259.636719 287.476562 L 256.410156 282 C 253.820312 283.949219 251.269531 284.886719 248.34375 284.886719 C 242.867188 284.886719 239.003906 281.023438 239.003906 274.914062 C 239.003906 269.101562 242.867188 265.238281 248.34375 264.9375 C 251.234375 264.9375 253.820312 265.914062 256.410156 267.824219 L 259.636719 262.351562 C 256.410156 259.761719 253.183594 258.824219 248.683594 258.824219 C 238.703125 258.789062 232.25 265.574219 232.25 274.914062 Z M 294.710938 274.914062 L 294.710938 259.460938 L 287.957031 259.460938 L 287.957031 263.324219 C 285.707031 260.4375 282.480469 258.824219 278.277344 258.824219 C 269.578125 258.824219 262.824219 265.574219 262.824219 274.914062 C 262.824219 284.25 269.578125 291 278.277344 291 C 282.78125 291 286.007812 289.386719 287.957031 286.5 L 287.957031 290.363281 L 294.710938 290.363281 Z M 269.914062 274.914062 C 269.914062 269.4375 273.441406 264.9375 279.253906 264.9375 C 284.730469 264.9375 288.59375 269.136719 288.59375 274.914062 C 288.59375 280.386719 284.730469 284.886719 279.253906 284.886719 C 273.476562 284.550781 269.914062 280.351562 269.914062 274.914062 Z M 189.113281 258.789062 C 180.109375 258.789062 173.65625 265.238281 173.65625 274.875 C 173.65625 284.550781 180.109375 290.960938 189.449219 290.960938 C 193.953125 290.960938 198.453125 289.6875 202.015625 286.761719 L 198.792969 281.925781 C 196.203125 283.875 192.976562 285.148438 189.789062 285.148438 C 185.585938 285.148438 181.421875 283.199219 180.449219 277.761719 L 203.292969 277.761719 C 203.292969 276.789062 203.292969 276.148438 203.292969 275.175781 C 203.59375 265.238281 197.777344 258.789062 189.113281 258.789062 Z M 189.113281 264.601562 C 193.3125 264.601562 196.203125 267.1875 196.839844 271.988281 L 180.746094 271.988281 C 181.386719 267.824219 184.273438 264.601562 189.113281 264.601562 Z M 356.867188 274.914062 L 356.867188 247.238281 L 350.113281 247.238281 L 350.113281 263.324219 C 347.863281 260.4375 344.636719 258.824219 340.4375 258.824219 C 331.734375 258.824219 324.980469 265.574219 324.980469 274.914062 C 324.980469 284.25 331.734375 291 340.4375 291 C 344.9375 291 348.164062 289.386719 350.113281 286.5 L 350.113281 290.363281 L 356.867188 290.363281 Z M 332.070312 274.914062 C 332.070312 269.4375 335.597656 264.9375 341.410156 264.9375 C 346.890625 264.9375 350.753906 269.136719 350.753906 274.914062 C 350.753906 280.386719 346.890625 284.886719 341.410156 284.886719 C 335.597656 284.550781 332.070312 280.351562 332.070312 274.914062 Z M 106.023438 274.914062 L 106.023438 259.460938 L 99.273438 259.460938 L 99.273438 263.324219 C 97.019531 260.4375 93.792969 258.824219 89.59375 258.824219 C 80.890625 258.824219 74.136719 265.574219 74.136719 274.914062 C 74.136719 284.25 80.890625 291 89.59375 291 C 94.09375 291 97.320312 289.386719 99.273438 286.5 L 99.273438 290.363281 L 106.023438 290.363281 Z M 80.929688 274.914062 C 80.929688 269.4375 84.453125 264.9375 90.269531 264.9375 C 95.746094 264.9375 99.609375 269.136719 99.609375 274.914062 C 99.609375 280.386719 95.746094 284.886719 90.269531 284.886719 C 84.453125 284.550781 80.929688 280.351562 80.929688 274.914062 Z M 80.929688 274.914062 " fill-opacity="1" fill-rule="nonzero"/><path fill="#ff5a00" d="M 136.632812 24.789062 L 238.066406 24.789062 L 238.066406 206.960938 L 136.632812 206.960938 Z M 136.632812 24.789062 " fill-opacity="1" fill-rule="nonzero"/><path fill="#eb001b" d="M 143.386719 115.875 C 143.386719 78.863281 160.792969 46.011719 187.5 24.789062 C 167.84375 9.335938 143.046875 0 116.003906 0 C 51.929688 0 0.0898438 51.824219 0.0898438 115.875 C 0.0898438 179.925781 51.929688 231.75 116.003906 231.75 C 143.046875 231.75 167.84375 222.414062 187.5 206.960938 C 160.753906 186.039062 143.386719 152.886719 143.386719 115.875 Z M 143.386719 115.875 " fill-opacity="1" fill-rule="nonzero"/><path fill="#f79e1b" d="M 374.910156 115.875 C 374.910156 179.925781 323.070312 231.75 258.996094 231.75 C 231.953125 231.75 207.15625 222.414062 187.5 206.960938 C 214.546875 185.699219 231.613281 152.886719 231.613281 115.875 C 231.613281 78.863281 214.207031 46.011719 187.5 24.789062 C 207.117188 9.335938 231.914062 0 258.960938 0 C 323.070312 0 374.910156 52.164062 374.910156 115.875 Z M 374.910156 115.875 " fill-opacity="1" fill-rule="nonzero"/></svg>