<svg xmlns="http://www.w3.org/2000/svg" xmlns:xlink="http://www.w3.org/1999/xlink" width="500" zoomAndPan="magnify" viewBox="0 0 375 374.999991" height="500" preserveAspectRatio="xMidYMid meet" version="1.0"><defs><clipPath id="193ab4a055"><path d="M 104.808594 57.082031 L 270.558594 57.082031 L 270.558594 281.332031 L 104.808594 281.332031 Z M 104.808594 57.082031 " clip-rule="nonzero"/></clipPath></defs><g clip-path="url(#193ab4a055)"><path fill="#f9fafd" d="M 261.898438 147.90625 L 250.472656 147.90625 L 250.472656 120.125 C 250.519531 85.355469 222.246094 57.082031 187.472656 57.082031 C 152.703125 57.082031 124.429688 85.355469 124.429688 120.125 L 124.429688 147.90625 L 113.046875 147.90625 C 108.523438 147.90625 104.847656 151.582031 104.847656 156.105469 L 104.847656 272.964844 C 104.847656 277.445312 108.523438 281.121094 113.046875 281.121094 L 261.945312 281.121094 C 266.46875 281.121094 270.144531 277.445312 270.144531 272.921875 L 270.144531 156.105469 C 270.101562 151.582031 266.425781 147.90625 261.898438 147.90625 Z M 140.828125 120.125 C 140.828125 94.40625 161.753906 73.480469 187.472656 73.480469 C 213.195312 73.480469 234.121094 94.40625 234.121094 120.125 L 234.121094 147.90625 L 140.828125 147.90625 Z M 195.675781 220.40625 L 195.675781 241.957031 C 195.675781 246.484375 192 250.15625 187.472656 250.15625 C 182.949219 250.15625 179.273438 246.484375 179.273438 241.957031 L 179.273438 220.40625 C 173.628906 217.449219 169.773438 211.535156 169.773438 204.765625 C 169.773438 195 177.707031 187.113281 187.429688 187.113281 C 197.199219 187.113281 205.082031 195.042969 205.082031 204.765625 C 205.171875 211.535156 201.320312 217.449219 195.675781 220.40625 Z M 195.675781 220.40625 " fill-opacity="1" fill-rule="nonzero"/></g></svg>