<svg width="228" height="228" viewBox="0 0 228 228" fill="none" xmlns="http://www.w3.org/2000/svg">
<mask id="mask0_1004_17" style="mask-type:luminance" maskUnits="userSpaceOnUse" x="0" y="0" width="228" height="228">
<path d="M227.87 227.203H-1.70479e-06V-6.77118e-06H227.87V227.203Z" fill="white"/>
</mask>
<g mask="url(#mask0_1004_17)">
<mask id="mask1_1004_17" style="mask-type:luminance" maskUnits="userSpaceOnUse" x="0" y="-1" width="228" height="229">
<path d="M4.57764e-05 227.203H228V-0.796875H4.57764e-05V227.203Z" fill="white"/>
</mask>
<g mask="url(#mask1_1004_17)">
<mask id="mask2_1004_17" style="mask-type:luminance" maskUnits="userSpaceOnUse" x="0" y="0" width="227" height="228">
<path d="M226.667 227.203H0.479165V0.536452H226.667V227.203Z" fill="white"/>
</mask>
<g mask="url(#mask2_1004_17)">
<path d="M226.255 110.797C226.313 112.641 226.323 114.49 226.287 116.333C226.25 118.177 226.167 120.021 226.042 121.865C225.917 123.703 225.745 125.542 225.526 127.375C225.307 129.208 225.047 131.036 224.74 132.854C224.438 134.677 224.083 136.484 223.688 138.292C223.292 140.094 222.854 141.885 222.37 143.667C221.885 145.448 221.359 147.214 220.792 148.969C220.219 150.729 219.609 152.469 218.953 154.193C218.297 155.917 217.599 157.625 216.859 159.318C216.12 161.01 215.339 162.682 214.521 164.333C213.698 165.984 212.839 167.62 211.932 169.229C211.031 170.839 210.094 172.427 209.115 173.99C208.135 175.557 207.115 177.094 206.063 178.609C205.005 180.125 203.917 181.609 202.787 183.073C201.656 184.531 200.495 185.964 199.297 187.37C198.099 188.771 196.865 190.146 195.599 191.49C194.333 192.833 193.037 194.146 191.708 195.427C190.375 196.703 189.016 197.948 187.625 199.161C186.234 200.375 184.813 201.552 183.365 202.698C181.912 203.839 180.438 204.948 178.932 206.016C177.432 207.089 175.901 208.12 174.349 209.115C172.792 210.115 171.214 211.068 169.615 211.99C168.016 212.906 166.391 213.781 164.745 214.62C163.104 215.458 161.438 216.26 159.755 217.016C158.073 217.771 156.37 218.484 154.651 219.161C152.932 219.833 151.198 220.464 149.448 221.052C147.698 221.641 145.938 222.188 144.162 222.688C142.385 223.188 140.599 223.646 138.797 224.063C137 224.474 135.193 224.844 133.375 225.167C131.557 225.495 129.734 225.776 127.901 226.01C126.073 226.245 124.24 226.438 122.396 226.583C120.557 226.729 118.714 226.828 116.87 226.88C115.026 226.938 113.177 226.948 111.333 226.911C109.49 226.875 107.646 226.797 105.802 226.667C103.964 226.542 102.125 226.37 100.292 226.156C98.4584 225.938 96.6303 225.677 94.8126 225.375C92.9896 225.068 91.1823 224.719 89.3751 224.323C87.573 223.927 85.7813 223.49 84.0001 223.005C82.2188 222.521 80.4532 221.995 78.6928 221.427C76.9376 220.859 75.198 220.245 73.474 219.589C71.7501 218.938 70.0365 218.24 68.349 217.5C66.6563 216.76 64.9844 215.979 63.3334 215.161C61.6771 214.339 60.0469 213.479 58.4323 212.578C56.823 211.677 55.2344 210.734 53.6719 209.755C52.1042 208.776 50.5678 207.76 49.0521 206.708C47.5365 205.651 46.0469 204.563 44.5886 203.432C43.1251 202.307 41.6928 201.141 40.2917 199.943C38.8855 198.745 37.5105 197.516 36.1667 196.25C34.823 194.984 33.5105 193.688 32.2344 192.354C30.9532 191.026 29.7084 189.667 28.4949 188.276C27.2813 186.885 26.099 185.464 24.9584 184.016C23.8126 182.568 22.7084 181.089 21.6355 179.589C20.5626 178.083 19.5313 176.557 18.5365 175C17.5417 173.448 16.5834 171.87 15.6615 170.271C14.7449 168.667 13.8646 167.047 13.0261 165.401C12.1876 163.755 11.3907 162.094 10.6355 160.411C9.87506 158.729 9.16152 157.026 8.48443 155.307C7.81256 153.589 7.18235 151.854 6.59381 150.104C6.00527 148.359 5.45839 146.594 4.95839 144.818C4.45318 143.042 3.99485 141.255 3.58339 139.458C3.16673 137.656 2.79693 135.849 2.47402 134.031C2.14589 132.219 1.86464 130.391 1.63027 128.563C1.39069 126.729 1.20318 124.896 1.05735 123.057C0.911518 121.219 0.807352 119.375 0.755268 117.531C0.697977 115.682 0.687559 113.839 0.724018 111.995C0.755267 110.146 0.838601 108.307 0.963601 106.464C1.0886 104.62 1.26048 102.786 1.47402 100.953C1.68756 99.1198 1.94798 97.2917 2.25527 95.4688C2.56256 93.651 2.91152 91.8385 3.30214 90.0365C3.69798 88.2344 4.13548 86.4427 4.61985 84.6615C5.09902 82.875 5.62506 81.1094 6.19798 79.3542C6.76568 77.599 7.37506 75.8542 8.03131 74.1302C8.68756 72.4063 9.38027 70.6979 10.1199 69.0052C10.8594 67.3125 11.6407 65.6406 12.4584 63.9844C13.2813 62.3333 14.1407 60.7031 15.0417 59.0885C15.9428 57.4792 16.8803 55.8906 17.8594 54.3281C18.8386 52.7604 19.8542 51.2188 20.9063 49.7031C21.9636 48.1927 23.0521 46.7031 24.1824 45.2396C25.3074 43.7813 26.4688 42.3438 27.6667 40.9427C28.8646 39.5365 30.099 38.1615 31.3594 36.8177C32.6251 35.474 33.9219 34.1615 35.2553 32.8802C36.5834 31.599 37.9428 30.3542 39.3334 29.1406C40.724 27.9271 42.1459 26.75 43.5938 25.6042C45.0417 24.4583 46.5157 23.3542 48.0209 22.2813C49.5209 21.2083 51.0521 20.1771 52.6042 19.1771C54.1563 18.1823 55.7344 17.224 57.3334 16.3073C58.9376 15.3854 60.5573 14.5052 62.2032 13.6667C63.8438 12.8281 65.5105 12.0313 67.1928 11.2708C68.8751 10.5156 70.5782 9.79689 72.2917 9.12501C74.0105 8.44793 75.7448 7.81772 77.4948 7.22918C79.2448 6.64064 81.0053 6.09376 82.7813 5.58856C84.5573 5.08856 86.3438 4.63022 88.1459 4.21356C89.9428 3.8021 91.7501 3.4271 93.5678 3.10418C95.3855 2.77606 97.2084 2.4948 99.0365 2.26043C100.87 2.02085 102.703 1.82814 104.542 1.68231C106.385 1.53647 108.224 1.43751 110.073 1.38022C111.917 1.32293 113.766 1.31251 115.609 1.34897C117.458 1.38022 119.302 1.46356 121.146 1.58856C122.99 1.71356 124.828 1.88022 126.662 2.09897C128.495 2.31251 130.323 2.57293 132.146 2.88022C133.969 3.18231 135.781 3.53126 137.583 3.9271C139.391 4.32293 141.182 4.76043 142.969 5.24481C144.75 5.72397 146.521 6.25001 148.276 6.82293C150.037 7.39064 151.776 8.00001 153.505 8.65626C155.229 9.31251 156.943 10.0104 158.635 10.75C160.328 11.4896 162 12.2656 163.656 13.0886C165.307 13.9115 166.943 14.7708 168.557 15.6719C170.167 16.5729 171.755 17.5156 173.323 18.4948C174.891 19.474 176.427 20.4896 177.948 21.5469C179.464 22.599 180.953 23.6927 182.412 24.8229C183.875 25.9479 185.307 27.1146 186.714 28.3125C188.12 29.5104 189.495 30.7448 190.839 32.0104C192.182 33.2761 193.5 34.5729 194.776 35.9063C196.057 37.2396 197.307 38.599 198.521 39.9896C199.734 41.3854 200.912 42.8021 202.057 44.2552C203.203 45.7031 204.313 47.1823 205.38 48.6875C206.453 50.1927 207.49 51.7188 208.484 53.2761C209.479 54.8333 210.438 56.4115 211.359 58.0104C212.276 59.6146 213.156 61.2396 213.995 62.8854C214.833 64.5313 215.63 66.1927 216.391 67.8802C217.146 69.5625 217.865 71.2656 218.537 72.9844C219.208 74.7083 219.839 76.4427 220.427 78.1927C221.016 79.9427 221.563 81.7083 222.063 83.4844C222.568 85.2656 223.026 87.0521 223.438 88.8542C223.854 90.651 224.224 92.4635 224.547 94.2813C224.87 96.099 225.151 97.9219 225.385 99.7552C225.625 101.589 225.813 103.427 225.958 105.266C226.104 107.109 226.203 108.953 226.255 110.797ZM79.2136 55.0417L130.938 114.182L79.2136 173.323L91.2969 183.958L152.37 114.182L91.2969 44.4063L79.2136 55.0417Z" fill="#7EB999"/>
</g>
</g>
</g>
</svg>
