<svg xmlns="http://www.w3.org/2000/svg" xmlns:xlink="http://www.w3.org/1999/xlink" width="500" zoomAndPan="magnify" viewBox="0 0 375 374.999991" height="500" preserveAspectRatio="xMidYMid meet" version="1.0"><path fill="#7eb999" d="M 308.070312 191.542969 C 308.128906 189.574219 308.140625 187.601562 308.101562 185.628906 C 308.0625 183.65625 307.976562 181.683594 307.839844 179.714844 C 307.703125 177.75 307.519531 175.785156 307.289062 173.824219 C 307.058594 171.867188 306.777344 169.914062 306.449219 167.96875 C 306.125 166.023438 305.75 164.085938 305.324219 162.160156 C 304.902344 160.230469 304.433594 158.316406 303.917969 156.414062 C 303.402344 154.507812 302.835938 152.617188 302.226562 150.742188 C 301.617188 148.863281 300.964844 147.003906 300.261719 145.160156 C 299.5625 143.316406 298.816406 141.488281 298.027344 139.683594 C 297.234375 137.875 296.402344 136.085938 295.523438 134.320312 C 294.644531 132.554688 293.726562 130.808594 292.761719 129.089844 C 291.796875 127.367188 290.792969 125.667969 289.746094 123.996094 C 288.699219 122.324219 287.609375 120.679688 286.484375 119.0625 C 285.355469 117.441406 284.1875 115.851562 282.984375 114.289062 C 281.777344 112.730469 280.535156 111.199219 279.253906 109.699219 C 277.972656 108.195312 276.65625 106.730469 275.300781 105.292969 C 273.949219 103.855469 272.5625 102.457031 271.140625 101.085938 C 269.71875 99.71875 268.261719 98.386719 266.777344 97.089844 C 265.289062 95.796875 263.769531 94.535156 262.222656 93.3125 C 260.671875 92.09375 259.09375 90.910156 257.488281 89.765625 C 255.878906 88.621094 254.246094 87.515625 252.585938 86.453125 C 250.921875 85.386719 249.238281 84.363281 247.523438 83.382812 C 245.8125 82.402344 244.078125 81.464844 242.320312 80.566406 C 240.5625 79.671875 238.785156 78.820312 236.984375 78.007812 C 235.1875 77.199219 233.367188 76.4375 231.53125 75.714844 C 229.695312 74.996094 227.839844 74.324219 225.972656 73.695312 C 224.101562 73.066406 222.214844 72.484375 220.316406 71.945312 C 218.417969 71.410156 216.507812 70.921875 214.585938 70.480469 C 212.664062 70.035156 210.730469 69.640625 208.789062 69.292969 C 206.847656 68.945312 204.898438 68.648438 202.941406 68.394531 C 200.984375 68.144531 199.023438 67.941406 197.054688 67.785156 C 195.089844 67.628906 193.117188 67.519531 191.148438 67.460938 C 189.175781 67.402344 187.203125 67.394531 185.230469 67.429688 C 183.257812 67.46875 181.285156 67.554688 179.320312 67.691406 C 177.351562 67.824219 175.386719 68.007812 173.425781 68.238281 C 171.46875 68.46875 169.515625 68.75 167.570312 69.074219 C 165.625 69.402344 163.6875 69.777344 161.761719 70.199219 C 159.832031 70.621094 157.917969 71.089844 156.011719 71.605469 C 154.109375 72.121094 152.21875 72.683594 150.34375 73.292969 C 148.464844 73.902344 146.605469 74.554688 144.761719 75.257812 C 142.914062 75.957031 141.089844 76.703125 139.28125 77.492188 C 137.472656 78.28125 135.6875 79.113281 133.917969 79.992188 C 132.152344 80.871094 130.40625 81.789062 128.6875 82.753906 C 126.964844 83.714844 125.265625 84.722656 123.59375 85.769531 C 121.921875 86.816406 120.277344 87.902344 118.65625 89.027344 C 117.039062 90.15625 115.445312 91.320312 113.886719 92.527344 C 112.324219 93.734375 110.792969 94.976562 109.292969 96.257812 C 107.789062 97.535156 106.320312 98.851562 104.886719 100.207031 C 103.449219 101.558594 102.046875 102.945312 100.679688 104.367188 C 99.308594 105.789062 97.976562 107.242188 96.679688 108.730469 C 95.382812 110.214844 94.125 111.734375 92.902344 113.28125 C 91.679688 114.832031 90.496094 116.410156 89.351562 118.015625 C 88.207031 119.621094 87.101562 121.257812 86.039062 122.917969 C 84.972656 124.578125 83.949219 126.265625 82.96875 127.976562 C 81.984375 129.6875 81.046875 131.421875 80.148438 133.179688 C 79.253906 134.9375 78.398438 136.714844 77.589844 138.511719 C 76.78125 140.3125 76.015625 142.128906 75.296875 143.96875 C 74.574219 145.804688 73.902344 147.65625 73.273438 149.527344 C 72.644531 151.398438 72.058594 153.28125 71.523438 155.179688 C 70.984375 157.078125 70.496094 158.988281 70.054688 160.910156 C 69.609375 162.835938 69.214844 164.765625 68.867188 166.707031 C 68.519531 168.648438 68.21875 170.597656 67.964844 172.554688 C 67.714844 174.511719 67.507812 176.476562 67.351562 178.441406 C 67.195312 180.40625 67.089844 182.378906 67.03125 184.347656 C 66.96875 186.320312 66.960938 188.292969 66.996094 190.265625 C 67.035156 192.238281 67.121094 194.210938 67.253906 196.179688 C 67.386719 198.144531 67.570312 200.109375 67.800781 202.070312 C 68.03125 204.027344 68.308594 205.980469 68.636719 207.925781 C 68.960938 209.871094 69.335938 211.808594 69.757812 213.738281 C 70.179688 215.664062 70.648438 217.578125 71.164062 219.484375 C 71.679688 221.390625 72.238281 223.28125 72.847656 225.15625 C 73.457031 227.03125 74.109375 228.894531 74.808594 230.738281 C 75.507812 232.582031 76.253906 234.410156 77.042969 236.21875 C 77.832031 238.027344 78.664062 239.8125 79.542969 241.582031 C 80.417969 243.347656 81.339844 245.09375 82.300781 246.816406 C 83.265625 248.539062 84.269531 250.234375 85.316406 251.90625 C 86.359375 253.582031 87.449219 255.226562 88.574219 256.847656 C 89.699219 258.464844 90.867188 260.054688 92.070312 261.617188 C 93.277344 263.179688 94.519531 264.710938 95.800781 266.214844 C 97.078125 267.714844 98.394531 269.183594 99.746094 270.621094 C 101.097656 272.058594 102.484375 273.460938 103.90625 274.828125 C 105.328125 276.199219 106.78125 277.53125 108.269531 278.828125 C 109.753906 280.125 111.273438 281.386719 112.820312 282.609375 C 114.367188 283.832031 115.945312 285.015625 117.550781 286.160156 C 119.160156 287.304688 120.792969 288.410156 122.453125 289.476562 C 124.113281 290.539062 125.800781 291.5625 127.511719 292.546875 C 129.222656 293.527344 130.957031 294.46875 132.710938 295.367188 C 134.46875 296.261719 136.246094 297.117188 138.046875 297.925781 C 139.84375 298.738281 141.664062 299.503906 143.5 300.222656 C 145.335938 300.945312 147.191406 301.621094 149.058594 302.25 C 150.929688 302.878906 152.8125 303.460938 154.710938 304 C 156.609375 304.535156 158.519531 305.027344 160.441406 305.472656 C 162.363281 305.914062 164.296875 306.3125 166.238281 306.660156 C 168.179688 307.007812 170.128906 307.308594 172.085938 307.5625 C 174.042969 307.816406 176.003906 308.019531 177.972656 308.175781 C 179.9375 308.332031 181.90625 308.441406 183.878906 308.5 C 185.851562 308.5625 187.828125 308.574219 189.800781 308.535156 C 191.773438 308.5 193.746094 308.414062 195.71875 308.28125 C 197.6875 308.148438 199.652344 307.964844 201.613281 307.734375 C 203.574219 307.503906 205.527344 307.226562 207.476562 306.898438 C 209.421875 306.574219 211.359375 306.199219 213.289062 305.777344 C 215.21875 305.355469 217.136719 304.886719 219.042969 304.371094 C 220.949219 303.855469 222.839844 303.292969 224.71875 302.6875 C 226.597656 302.078125 228.457031 301.421875 230.304688 300.722656 C 232.152344 300.023438 233.980469 299.277344 235.789062 298.488281 C 237.597656 297.699219 239.386719 296.863281 241.15625 295.984375 C 242.925781 295.109375 244.667969 294.1875 246.394531 293.222656 C 248.117188 292.261719 249.816406 291.253906 251.488281 290.207031 C 253.164062 289.160156 254.808594 288.074219 256.429688 286.945312 C 258.050781 285.816406 259.644531 284.652344 261.207031 283.445312 C 262.769531 282.238281 264.300781 280.996094 265.804688 279.714844 C 267.304688 278.429688 268.777344 277.113281 270.214844 275.761719 C 271.652344 274.40625 273.054688 273.019531 274.421875 271.597656 C 275.792969 270.171875 277.125 268.71875 278.421875 267.230469 C 279.722656 265.742188 280.980469 264.222656 282.203125 262.671875 C 283.425781 261.125 284.613281 259.542969 285.757812 257.9375 C 286.902344 256.328125 288.007812 254.691406 289.074219 253.03125 C 290.136719 251.367188 291.164062 249.679688 292.144531 247.96875 C 293.125 246.253906 294.066406 244.519531 294.964844 242.757812 C 295.859375 241 296.714844 239.222656 297.523438 237.417969 C 298.332031 235.617188 299.097656 233.800781 299.816406 231.960938 C 300.539062 230.121094 301.210938 228.269531 301.839844 226.394531 C 302.46875 224.523438 303.054688 222.640625 303.589844 220.738281 C 304.125 218.839844 304.613281 216.925781 305.058594 215.003906 C 305.5 213.078125 305.894531 211.144531 306.242188 209.199219 C 306.589844 207.257812 306.890625 205.304688 307.140625 203.347656 C 307.390625 201.390625 307.597656 199.425781 307.75 197.457031 C 307.90625 195.488281 308.011719 193.519531 308.070312 191.542969 Z M 150.894531 251.144531 L 206.1875 187.925781 L 150.894531 124.710938 L 163.8125 113.34375 L 229.09375 187.925781 L 163.8125 262.511719 Z M 150.894531 251.144531 " fill-opacity="1" fill-rule="nonzero"/></svg>