<svg xmlns="http://www.w3.org/2000/svg" xmlns:xlink="http://www.w3.org/1999/xlink" width="500" zoomAndPan="magnify" viewBox="0 0 375 374.999991" height="500" preserveAspectRatio="xMidYMid meet" version="1.0"><defs><clipPath id="61a4b5ab45"><path d="M 90.316406 82.984375 L 299.566406 82.984375 L 299.566406 292.234375 L 90.316406 292.234375 Z M 90.316406 82.984375 " clip-rule="nonzero"/></clipPath></defs><g clip-path="url(#61a4b5ab45)"><path fill="#000000" d="M 166.246094 223.925781 C 148.976562 223.925781 132.746094 217.183594 120.535156 204.945312 C 95.328125 179.675781 95.328125 138.558594 120.535156 113.289062 C 133.136719 100.652344 149.6875 94.335938 166.246094 94.335938 C 182.796875 94.335938 199.355469 100.65625 211.957031 113.289062 C 237.164062 138.558594 237.164062 179.675781 211.957031 204.945312 C 199.75 217.183594 183.511719 223.925781 166.246094 223.925781 Z M 297.367188 282.570312 L 223.777344 208.796875 C 229.191406 202.515625 233.496094 195.460938 236.613281 187.757812 C 240.304688 178.636719 242.175781 169 242.175781 159.117188 C 242.175781 149.234375 240.304688 139.597656 236.613281 130.476562 C 232.792969 121.027344 227.179688 112.554688 219.933594 105.292969 C 212.6875 98.027344 204.238281 92.402344 194.8125 88.570312 C 185.71875 84.871094 176.105469 82.996094 166.246094 82.996094 C 156.386719 82.996094 146.773438 84.875 137.675781 88.570312 C 128.253906 92.402344 119.804688 98.027344 112.558594 105.292969 C 105.308594 112.554688 99.699219 121.027344 95.878906 130.476562 C 92.1875 139.597656 90.316406 149.234375 90.316406 159.117188 C 90.316406 169 92.1875 178.636719 95.878906 187.757812 C 99.699219 197.203125 105.308594 205.675781 112.558594 212.941406 C 119.804688 220.203125 128.253906 225.832031 137.675781 229.660156 C 146.773438 233.359375 156.386719 235.234375 166.246094 235.238281 C 176.105469 235.238281 185.71875 233.359375 194.8125 229.660156 C 202.496094 226.539062 209.535156 222.222656 215.800781 216.792969 L 289.390625 290.566406 C 290.492188 291.671875 291.933594 292.222656 293.375 292.222656 C 294.820312 292.222656 296.265625 291.671875 297.367188 290.566406 C 299.570312 288.359375 299.570312 284.777344 297.367188 282.570312 " fill-opacity="1" fill-rule="nonzero"/></g></svg>