<svg xmlns="http://www.w3.org/2000/svg" xmlns:xlink="http://www.w3.org/1999/xlink" width="500" zoomAndPan="magnify" viewBox="0 0 375 374.999991" height="500" preserveAspectRatio="xMidYMid meet" version="1.0"><defs><clipPath id="e6e4cefcb1"><path d="M 69.621094 69.621094 L 305.121094 69.621094 L 305.121094 305.121094 L 69.621094 305.121094 Z M 69.621094 69.621094 " clip-rule="nonzero"/></clipPath></defs><path fill="#f9fafd" d="M 150.898438 249.976562 C 150.898438 250.304688 150.867188 250.632812 150.800781 250.957031 C 150.738281 251.28125 150.640625 251.597656 150.515625 251.902344 C 150.390625 252.207031 150.234375 252.496094 150.050781 252.773438 C 149.867188 253.046875 149.660156 253.300781 149.425781 253.535156 C 149.191406 253.769531 148.9375 253.976562 148.664062 254.160156 C 148.386719 254.34375 148.097656 254.5 147.792969 254.625 C 147.488281 254.75 147.171875 254.847656 146.847656 254.910156 C 146.523438 254.976562 146.195312 255.007812 145.867188 255.007812 C 145.535156 255.007812 145.207031 254.976562 144.882812 254.910156 C 144.558594 254.847656 144.246094 254.75 143.941406 254.625 C 143.636719 254.5 143.34375 254.34375 143.070312 254.160156 C 142.796875 253.976562 142.542969 253.769531 142.308594 253.535156 C 142.074219 253.300781 141.867188 253.046875 141.683594 252.773438 C 141.5 252.496094 141.34375 252.207031 141.214844 251.902344 C 141.089844 251.597656 140.996094 251.28125 140.929688 250.957031 C 140.867188 250.632812 140.832031 250.304688 140.832031 249.976562 C 140.832031 249.644531 140.867188 249.316406 140.929688 248.992188 C 140.996094 248.667969 141.089844 248.355469 141.214844 248.050781 C 141.34375 247.746094 141.5 247.453125 141.683594 247.179688 C 141.867188 246.90625 142.074219 246.652344 142.308594 246.417969 C 142.542969 246.183594 142.796875 245.972656 143.070312 245.789062 C 143.34375 245.605469 143.636719 245.453125 143.941406 245.324219 C 144.246094 245.199219 144.558594 245.105469 144.882812 245.039062 C 145.207031 244.976562 145.535156 244.941406 145.867188 244.941406 C 146.195312 244.941406 146.523438 244.976562 146.847656 245.039062 C 147.171875 245.105469 147.488281 245.199219 147.792969 245.324219 C 148.097656 245.453125 148.386719 245.605469 148.664062 245.789062 C 148.9375 245.972656 149.191406 246.183594 149.425781 246.417969 C 149.660156 246.652344 149.867188 246.90625 150.050781 247.179688 C 150.234375 247.453125 150.390625 247.746094 150.515625 248.050781 C 150.640625 248.355469 150.738281 248.667969 150.800781 248.992188 C 150.867188 249.316406 150.898438 249.644531 150.898438 249.976562 Z M 150.898438 249.976562 " fill-opacity="1" fill-rule="nonzero"/><path fill="#f9fafd" d="M 233.5 249.976562 C 233.5 250.304688 233.46875 250.632812 233.40625 250.957031 C 233.339844 251.28125 233.246094 251.597656 233.117188 251.902344 C 232.992188 252.207031 232.835938 252.496094 232.652344 252.773438 C 232.46875 253.046875 232.261719 253.300781 232.027344 253.535156 C 231.792969 253.769531 231.539062 253.976562 231.265625 254.160156 C 230.992188 254.34375 230.699219 254.5 230.394531 254.625 C 230.089844 254.75 229.773438 254.847656 229.449219 254.910156 C 229.125 254.976562 228.800781 255.007812 228.46875 255.007812 C 228.136719 255.007812 227.8125 254.976562 227.488281 254.910156 C 227.164062 254.847656 226.847656 254.75 226.542969 254.625 C 226.238281 254.5 225.949219 254.34375 225.671875 254.160156 C 225.398438 253.976562 225.144531 253.769531 224.910156 253.535156 C 224.675781 253.300781 224.46875 253.046875 224.285156 252.773438 C 224.101562 252.496094 223.945312 252.207031 223.820312 251.902344 C 223.691406 251.597656 223.597656 251.28125 223.53125 250.957031 C 223.46875 250.632812 223.4375 250.304688 223.4375 249.976562 C 223.4375 249.644531 223.46875 249.316406 223.53125 248.992188 C 223.597656 248.667969 223.691406 248.355469 223.820312 248.050781 C 223.945312 247.746094 224.101562 247.453125 224.285156 247.179688 C 224.46875 246.90625 224.675781 246.652344 224.910156 246.417969 C 225.144531 246.183594 225.398438 245.972656 225.671875 245.789062 C 225.949219 245.605469 226.238281 245.453125 226.542969 245.324219 C 226.847656 245.199219 227.164062 245.105469 227.488281 245.039062 C 227.8125 244.976562 228.136719 244.941406 228.46875 244.941406 C 228.800781 244.941406 229.125 244.976562 229.449219 245.039062 C 229.773438 245.105469 230.089844 245.199219 230.394531 245.324219 C 230.699219 245.453125 230.992188 245.605469 231.265625 245.789062 C 231.539062 245.972656 231.792969 246.183594 232.027344 246.417969 C 232.261719 246.652344 232.46875 246.90625 232.652344 247.179688 C 232.835938 247.453125 232.992188 247.746094 233.117188 248.050781 C 233.246094 248.355469 233.339844 248.667969 233.40625 248.992188 C 233.46875 249.316406 233.5 249.644531 233.5 249.976562 Z M 233.5 249.976562 " fill-opacity="1" fill-rule="nonzero"/><g clip-path="url(#e6e4cefcb1)"><path fill="#f9fafd" d="M 187.476562 69.550781 C 122.394531 69.550781 69.636719 122.3125 69.636719 187.390625 C 69.636719 252.46875 122.394531 305.238281 187.476562 305.238281 C 252.558594 305.238281 305.316406 252.472656 305.316406 187.390625 C 305.316406 122.3125 252.558594 69.550781 187.476562 69.550781 Z M 155.273438 232.71875 L 228.46875 232.71875 C 237.984375 232.71875 245.726562 240.460938 245.726562 249.976562 C 245.726562 259.492188 237.984375 267.234375 228.46875 267.234375 C 218.953125 267.234375 211.207031 259.492188 211.207031 249.976562 C 211.207031 248.226562 211.476562 246.535156 211.960938 244.941406 L 162.371094 244.941406 C 162.859375 246.535156 163.125 248.222656 163.125 249.976562 C 163.125 259.492188 155.382812 267.234375 145.867188 267.234375 C 136.347656 267.234375 128.609375 259.492188 128.609375 249.976562 C 128.609375 241.476562 134.792969 234.40625 142.894531 232.992188 L 139.863281 216.28125 L 139.828125 216.125 L 123.734375 136.488281 L 108.953125 136.585938 L 108.871094 124.359375 L 133.726562 124.195312 L 139.742188 153.957031 L 251.171875 167.316406 L 237.015625 221.253906 L 153.1875 221.253906 Z M 155.273438 232.71875 " fill-opacity="1" fill-rule="nonzero"/></g></svg>